<mxfile host="app.diagrams.net" modified="2022-06-23T13:54:51.003Z" agent="5.0 (X11; Linux x86_64) AppleWebKit/537.36 (KHTML, like Gecko) Chrome/102.0.0.0 Safari/537.36" etag="IPvF9eV_RL1EkAzdwmZ_" version="20.0.2" type="github">
  <diagram id="b5qmhu_wqELokIMZqW0I" name="Page-1">
    <mxGraphModel dx="4124" dy="2130" grid="1" gridSize="10" guides="1" tooltips="1" connect="1" arrows="1" fold="1" page="1" pageScale="1" pageWidth="827" pageHeight="1169" math="0" shadow="0">
      <root>
        <mxCell id="0" />
        <mxCell id="1" parent="0" />
        <mxCell id="pV0ACqQaasXmKPG5yBSi-1" value="&lt;h1&gt;Заменить использование user.attributes.category&lt;/h1&gt;&lt;p&gt;на использование категории, приходящей в &lt;b&gt;included&lt;/b&gt;&lt;/p&gt;&lt;p&gt;&lt;b&gt;IdlePersonalInfo и idleUsersApi&lt;/b&gt;&lt;/p&gt;" style="text;html=1;strokeColor=#9673a6;fillColor=#e1d5e7;spacing=5;spacingTop=-20;whiteSpace=wrap;overflow=hidden;rounded=0;labelBackgroundColor=none;fontSize=12;" parent="1" vertex="1">
          <mxGeometry x="80" y="1040" width="640" height="120" as="geometry" />
        </mxCell>
        <mxCell id="pV0ACqQaasXmKPG5yBSi-2" value="&lt;h1&gt;Удаление статусов у &lt;u&gt;request_slots, idles&lt;/u&gt;&lt;/h1&gt;&lt;p&gt;У&amp;nbsp;&lt;b style=&quot;text-decoration-line: underline;&quot;&gt;idles&lt;/b&gt; и &lt;b style=&quot;text-decoration-line: underline;&quot;&gt;request_slots&lt;/b&gt;&amp;nbsp;статусы одинаковые и определять их придется так:&lt;/p&gt;&lt;p&gt;&lt;/p&gt;&lt;ul&gt;&lt;li&gt;active (если нет связанного букинга)&lt;/li&gt;&lt;li&gt;booked&amp;nbsp;(если у связанного букинга статус &lt;b&gt;booked&lt;/b&gt;)&lt;/li&gt;&lt;li&gt;approved&amp;nbsp;(если у связанного букинга статус &lt;b&gt;approved&lt;/b&gt;)&lt;/li&gt;&lt;li&gt;closed&amp;nbsp;(если у связанного букинга статус&amp;nbsp;&lt;b&gt;closed&lt;/b&gt;)&lt;/li&gt;&lt;/ul&gt;Задача по выносу статсов на бэке&amp;nbsp;https://evrone.atlassian.net/browse/ERP-2666&lt;br&gt;&lt;p&gt;&lt;/p&gt;" style="text;html=1;strokeColor=#9673a6;fillColor=#e1d5e7;spacing=5;spacingTop=-20;whiteSpace=wrap;overflow=hidden;rounded=0;" parent="1" vertex="1">
          <mxGeometry x="780" y="860" width="490" height="200" as="geometry" />
        </mxCell>
        <mxCell id="pV0ACqQaasXmKPG5yBSi-3" value="&lt;h1&gt;&lt;span style=&quot;background-color: initial;&quot;&gt;Отказаться от использования прямой зависимости idle и request_slot&lt;/span&gt;&lt;/h1&gt;&lt;h1&gt;&lt;font style=&quot;font-size: 13px;&quot;&gt;&lt;span style=&quot;font-weight: normal;&quot;&gt;На&lt;/span&gt;&amp;nbsp;&lt;span style=&quot;font-weight: normal;&quot;&gt;данный момент при отрисовке данных забронированного слота, idle получается из прямой зависимости request_slot.relationships.idle.data.id. Нужно отказаться от прямого связывания и доставать idle через booking&lt;/span&gt;&lt;/font&gt;&lt;/h1&gt;" style="text;html=1;strokeColor=#9673a6;fillColor=#e1d5e7;spacing=5;spacingTop=-20;whiteSpace=wrap;overflow=hidden;rounded=0;labelBackgroundColor=none;fontSize=12;" parent="1" vertex="1">
          <mxGeometry x="80" y="860" width="640" height="170" as="geometry" />
        </mxCell>
        <mxCell id="pV0ACqQaasXmKPG5yBSi-4" value="" style="group;fillColor=#d5e8d4;strokeColor=#82b366;" parent="1" vertex="1" connectable="0">
          <mxGeometry x="3420" y="1280" width="1210" height="760" as="geometry" />
        </mxCell>
        <mxCell id="pV0ACqQaasXmKPG5yBSi-5" value="&lt;font style=&quot;font-size: 25px;&quot;&gt;&lt;i&gt;&lt;b&gt;&lt;u&gt;Websockets&lt;/u&gt;&lt;/b&gt;&lt;/i&gt;&lt;/font&gt;" style="text;html=1;align=center;verticalAlign=middle;resizable=0;points=[];autosize=1;strokeColor=none;fillColor=none;" parent="pV0ACqQaasXmKPG5yBSi-4" vertex="1">
          <mxGeometry x="447.53807165437297" y="10" width="160" height="20" as="geometry" />
        </mxCell>
        <mxCell id="pV0ACqQaasXmKPG5yBSi-6" value="&lt;h1&gt;Idle events&lt;/h1&gt;&lt;div&gt;Используем те же данные, которые приходят от&amp;nbsp;&lt;span style=&quot;font-size: 13px; background-color: initial;&quot;&gt;&lt;b&gt;/web_api/v1/idles&lt;/b&gt;&lt;/span&gt;&lt;/div&gt;&lt;div&gt;&lt;ul&gt;&lt;li&gt;&lt;span style=&quot;background-color: initial; font-size: 13px;&quot;&gt;&lt;font style=&quot;font-size: 13px;&quot;&gt;&lt;b&gt;idle_created&lt;/b&gt;&lt;/font&gt; - создание айдла&lt;/span&gt;&lt;/li&gt;&lt;li style=&quot;font-size: 13px;&quot;&gt;&lt;font style=&quot;font-size: 13px;&quot;&gt;&lt;b&gt;idle_updated&lt;/b&gt;&lt;/font&gt; (при обновлении &lt;b&gt;project, &lt;/b&gt;idleReason, comment, date, timezone, grade, englishLevel)&lt;/li&gt;&lt;li&gt;&lt;b&gt;&lt;font style=&quot;font-size: 13px;&quot;&gt;idle_deleted&lt;/font&gt;&lt;/b&gt; - удаление айдла&lt;/li&gt;&lt;/ul&gt;&lt;div&gt;&lt;span style=&quot;color: rgb(0, 0, 204); font-size: 13px;&quot;&gt;Сейчас нет обработки добавления/изменения CV, usersSkills, slots (инфо об отпусках, больничных, отгулах).&lt;/span&gt;&lt;br&gt;&lt;/div&gt;&lt;/div&gt;&lt;div&gt;&lt;font color=&quot;#0000cc&quot;&gt;&lt;span style=&quot;font-size: 13px;&quot;&gt;С Лёшей обсудили и решили, что это не критично и не особо нужно.&lt;/span&gt;&lt;/font&gt;&lt;/div&gt;" style="text;html=1;spacing=5;spacingTop=-20;whiteSpace=wrap;overflow=hidden;rounded=0;" parent="pV0ACqQaasXmKPG5yBSi-4" vertex="1">
          <mxGeometry x="33.150684931506845" y="60" width="1143.6986301369864" height="180" as="geometry" />
        </mxCell>
        <mxCell id="pV0ACqQaasXmKPG5yBSi-7" value="&lt;h1&gt;project_employee_requests events&lt;/h1&gt;&lt;h1&gt;&lt;div style=&quot;font-size: 12px; font-weight: 400;&quot;&gt;Используем те же данные, которые приходят от&amp;nbsp;&lt;span style=&quot;font-size: 13px; background-color: initial;&quot;&gt;&lt;b&gt;/web_api/v1/project_employee_request&lt;/b&gt;&lt;/span&gt;&lt;/div&gt;&lt;/h1&gt;&lt;div&gt;&lt;ul&gt;&lt;li&gt;&lt;span style=&quot;background-color: initial; font-size: 13px;&quot;&gt;&lt;font style=&quot;font-size: 13px;&quot;&gt;&lt;b&gt;employee_request_slot_created&lt;/b&gt;&lt;/font&gt; - создание слота&lt;/span&gt;&lt;/li&gt;&lt;li style=&quot;font-size: 13px;&quot;&gt;&lt;font style=&quot;font-size: 13px;&quot;&gt;&lt;b&gt;&lt;b&gt;employee_&lt;/b&gt;request_slot_updated&lt;/b&gt;&lt;/font&gt; (обновление probability, grade, english, startTime, rate, workdayTimeZone, description, timezoneTolerance)&lt;/li&gt;&lt;li&gt;&lt;b&gt;&lt;font style=&quot;font-size: 13px;&quot;&gt;&lt;b&gt;employee_&lt;/b&gt;request_slot_deleted&lt;/font&gt;&lt;/b&gt; - удаление слота&lt;/li&gt;&lt;li&gt;&lt;font style=&quot;font-size: 13px;&quot;&gt;&lt;b style=&quot;font-weight: bold;&quot;&gt;employee_&lt;/b&gt;&lt;b&gt;request_updated &lt;/b&gt;- обновление заявки (при изменении title, project, contractType, essence, &lt;u&gt;status&lt;/u&gt; &lt;u&gt;(&lt;/u&gt;вместо старых событий project_employee_request_drafted, project_employee_request_published, project_employee_request_closed)&lt;/font&gt;&lt;br&gt;&lt;/li&gt;&lt;li&gt;&lt;font style=&quot;font-size: 13px;&quot;&gt;&lt;font color=&quot;#000099&quot;&gt;&lt;b&gt;employee_&lt;/b&gt;&lt;b&gt;request_created &lt;/b&gt;- создание заявки в статусе draft (при отлове события, на фронте будет проверка, если автор заявки = текущий пользователь, то будем обрабатывать событие и выводить заявку, т.к. видеть черновики может только их автор)&lt;/font&gt;&lt;/font&gt;&amp;nbsp;&lt;/li&gt;&lt;/ul&gt;&lt;/div&gt;" style="text;html=1;spacing=5;spacingTop=-20;whiteSpace=wrap;overflow=hidden;rounded=0;" parent="pV0ACqQaasXmKPG5yBSi-4" vertex="1">
          <mxGeometry x="33.15" y="290" width="1143.7" height="210" as="geometry" />
        </mxCell>
        <mxCell id="pV0ACqQaasXmKPG5yBSi-8" value="&lt;h1&gt;idle_booking events&lt;/h1&gt;&lt;h1&gt;&lt;div style=&quot;font-size: 12px; font-weight: 400;&quot;&gt;Используем те же данные, которые приходят от&amp;nbsp;&lt;span style=&quot;font-size: 13px; background-color: initial;&quot;&gt;&lt;b&gt;/web_api/v1/idle_booking&lt;/b&gt;&lt;/span&gt;&lt;/div&gt;&lt;/h1&gt;&lt;div&gt;&lt;ul&gt;&lt;li&gt;&lt;span style=&quot;background-color: initial; font-size: 13px;&quot;&gt;&lt;font style=&quot;font-size: 13px;&quot;&gt;&lt;b&gt;idle_booking_created&lt;/b&gt;&lt;/font&gt; - бронирование айдла в слот&lt;/span&gt;&lt;/li&gt;&lt;li style=&quot;font-size: 13px;&quot;&gt;&lt;b&gt;idle_booking_updated&lt;/b&gt;&amp;nbsp;(при обновлении коментария бронирования, смене статуса бронирования)&lt;/li&gt;&lt;li&gt;&lt;b&gt;&lt;font style=&quot;font-size: 13px;&quot;&gt;&lt;b&gt;idle_booking&lt;/b&gt;_deleted&lt;/font&gt;&lt;/b&gt; - отмена бронирования&lt;br&gt;&lt;/li&gt;&lt;/ul&gt;&lt;/div&gt;" style="text;html=1;spacing=5;spacingTop=-20;whiteSpace=wrap;overflow=hidden;rounded=0;" parent="pV0ACqQaasXmKPG5yBSi-4" vertex="1">
          <mxGeometry x="33.150684931506845" y="560" width="1143.6986301369864" height="145" as="geometry" />
        </mxCell>
        <mxCell id="pV0ACqQaasXmKPG5yBSi-9" value="&lt;h1&gt;&lt;span style=&quot;background-color: initial;&quot;&gt;Инфо о финансах idle&amp;nbsp;&lt;/span&gt;&lt;/h1&gt;&lt;div&gt;Шарить финансовую информацию мы не можем, потому что видимость зависит от пользователя. (&lt;b&gt;Будем инициировать запрос по idle.id при получении события idle_created&lt;/b&gt;)&amp;nbsp;&lt;/div&gt;" style="text;html=1;strokeColor=#b85450;fillColor=#f8cecc;spacing=5;spacingTop=-20;whiteSpace=wrap;overflow=hidden;rounded=0;" parent="pV0ACqQaasXmKPG5yBSi-4" vertex="1">
          <mxGeometry x="730" y="80" width="440" height="100" as="geometry" />
        </mxCell>
        <mxCell id="pV0ACqQaasXmKPG5yBSi-10" value="" style="group" parent="1" vertex="1" connectable="0">
          <mxGeometry x="1746" y="830" width="1550" height="1440" as="geometry" />
        </mxCell>
        <mxCell id="pV0ACqQaasXmKPG5yBSi-11" value="&lt;h1&gt;Unused Endpoints&lt;/h1&gt;&lt;div&gt;&lt;b&gt;/web_api/v1/categories/with_active_requests&lt;/b&gt;&lt;/div&gt;" style="text;html=1;strokeColor=#b85450;fillColor=#f8cecc;spacing=5;spacingTop=-20;whiteSpace=wrap;overflow=hidden;rounded=0;" parent="pV0ACqQaasXmKPG5yBSi-10" vertex="1">
          <mxGeometry x="390" y="200" width="290" height="90" as="geometry" />
        </mxCell>
        <mxCell id="pV0ACqQaasXmKPG5yBSi-12" value="&lt;h1&gt;Фильтр заявок и слотов по позициям в урле&lt;/h1&gt;&lt;p&gt;Когда загружаем страницу с фильтрами, у нас должны выводиться только отфильтрованные проекты. Отфильтрованные проекты можно вывести только зная все &lt;b&gt;request_slot&lt;/b&gt;&amp;nbsp;принадлежащие к &lt;b&gt;employee_request&lt;/b&gt;&amp;nbsp;&lt;/p&gt;" style="text;html=1;strokeColor=#d6b656;fillColor=#fff2cc;spacing=5;spacingTop=-20;whiteSpace=wrap;overflow=hidden;rounded=0;" parent="pV0ACqQaasXmKPG5yBSi-10" vertex="1">
          <mxGeometry y="200" width="360" height="160" as="geometry" />
        </mxCell>
        <mxCell id="pV0ACqQaasXmKPG5yBSi-13" value="&lt;h1&gt;/web_api/v1/project_employee_request&lt;/h1&gt;&lt;p&gt;&lt;/p&gt;&lt;table&gt;&lt;tbody&gt;&lt;tr&gt;&lt;td style=&quot;border: 1px solid rgb(0, 0, 0); border-collapse: collapse;&quot; border=&quot;1&quot;&gt;Действие&lt;/td&gt;&lt;td style=&quot;border: 1px solid rgb(0, 0, 0); border-collapse: collapse;&quot; border=&quot;1&quot;&gt;Данные&lt;/td&gt;&lt;/tr&gt;&lt;tr&gt;&lt;td style=&quot;border: 1px solid rgb(0, 0, 0); border-collapse: collapse;&quot; border=&quot;1&quot;&gt;GET&lt;/td&gt;&lt;td style=&quot;border: 1px solid rgb(0, 0, 0); border-collapse: collapse;&quot; border=&quot;1&quot;&gt;&lt;b&gt;project_employee_request.status&lt;/b&gt;&lt;/td&gt;&lt;/tr&gt;&lt;tr&gt;&lt;td style=&quot;border: 1px solid rgb(0, 0, 0); border-collapse: collapse;&quot; border=&quot;1&quot;&gt;POST&lt;/td&gt;&lt;td style=&quot;border: 1px solid rgb(0, 0, 0); border-collapse: collapse;&quot; border=&quot;1&quot;&gt;-&lt;/td&gt;&lt;/tr&gt;&lt;tr&gt;&lt;td style=&quot;border: 1px solid rgb(0, 0, 0); border-collapse: collapse;&quot; border=&quot;1&quot;&gt;PATCH&lt;/td&gt;&lt;td style=&quot;border: 1px solid rgb(0, 0, 0); border-collapse: collapse;&quot; border=&quot;1&quot;&gt;name, status, essence, contractType, &lt;b&gt;project&lt;/b&gt;&lt;/td&gt;&lt;/tr&gt;&lt;tr&gt;&lt;td style=&quot;border: 1px solid rgb(0, 0, 0); border-collapse: collapse;&quot; border=&quot;1&quot;&gt;DELETE&lt;/td&gt;&lt;td style=&quot;border: 1px solid rgb(0, 0, 0); border-collapse: collapse;&quot; border=&quot;1&quot;&gt;&lt;b&gt;project_employee_request.id&lt;/b&gt;&lt;br&gt;&lt;/td&gt;&lt;/tr&gt;&lt;tr&gt;&lt;td style=&quot;border: 1px solid rgb(0, 0, 0); border-collapse: collapse;&quot; border=&quot;1&quot;&gt;&lt;strike&gt;PATCH&lt;br&gt;/project_employee_requests/&lt;b&gt;project_employee_request.id&lt;/b&gt;/close&lt;/strike&gt;&lt;/td&gt;&lt;td style=&quot;border: 1px solid rgb(0, 0, 0); border-collapse: collapse;&quot; border=&quot;1&quot;&gt;&lt;b&gt;&lt;strike&gt;project_employee_request.id&lt;/strike&gt;&lt;/b&gt;&lt;br&gt;&lt;/td&gt;&lt;/tr&gt;&lt;/tbody&gt;&lt;/table&gt;&lt;br&gt;&lt;font color=&quot;#000066&quot;&gt;&lt;b&gt;&lt;u style=&quot;background-color: rgb(255, 242, 204);&quot;&gt;Объединить PATCH (сейчас при попытке изменить status на closed выдает ошибку &quot;Unknown state&quot;&lt;br&gt;&lt;/u&gt;&lt;/b&gt;&lt;/font&gt;&lt;b style=&quot;color: rgb(0, 0, 102);&quot;&gt;&lt;div style=&quot;font-size: 12px;&quot;&gt;&lt;u style=&quot;background-color: initial; color: rgb(0, 0, 0); font-weight: 400;&quot;&gt;&lt;b&gt;&lt;span style=&quot;background-color: rgb(255, 229, 153);&quot;&gt;&lt;br&gt;&lt;/span&gt;&lt;/b&gt;&lt;/u&gt;&lt;/div&gt;&lt;div style=&quot;&quot;&gt;&lt;u style=&quot;color: rgb(0, 0, 0); font-weight: 400;&quot;&gt;&lt;b style=&quot;background-color: rgb(255, 242, 204);&quot;&gt;&lt;span style=&quot;font-size: 12px;&quot;&gt;Использовать для вывода информации о &lt;/span&gt;&lt;font style=&quot;font-size: 13px;&quot;&gt;заявках&lt;/font&gt;&lt;span style=&quot;font-size: 12px;&quot;&gt; и о &lt;/span&gt;&lt;font style=&quot;font-size: 14px;&quot;&gt;слотах тоже&lt;/font&gt;&lt;span style=&quot;font-size: 12px;&quot;&gt;!&lt;/span&gt;&lt;/b&gt;&lt;/u&gt;&lt;/div&gt;&lt;div style=&quot;font-size: 12px;&quot;&gt;&lt;u style=&quot;color: rgb(0, 0, 0); font-weight: 400; text-align: center;&quot;&gt;&lt;b&gt;&lt;br&gt;&lt;/b&gt;&lt;/u&gt;&lt;span style=&quot;color: rgb(0, 0, 0); font-weight: 400; text-align: center;&quot;&gt;Потому что могут быть&amp;nbsp;&lt;/span&gt;&lt;b style=&quot;color: rgb(0, 0, 0); text-align: center;&quot;&gt;employee_request&lt;/b&gt;&lt;span style=&quot;color: rgb(0, 0, 0); font-weight: 400; text-align: center;&quot;&gt;&amp;nbsp;без&amp;nbsp;&lt;/span&gt;&lt;b style=&quot;color: rgb(0, 0, 0); text-align: center;&quot;&gt;request_slot&lt;/b&gt;&lt;br style=&quot;color: rgb(0, 0, 0); font-weight: 400; text-align: center;&quot;&gt;&lt;span style=&quot;color: rgb(0, 0, 0); font-weight: 400; text-align: center;&quot;&gt;&amp;nbsp;(т.е. из ответа на запрос по слотам они не придут), а вот&lt;/span&gt;&lt;/div&gt;&lt;div style=&quot;font-size: 12px;&quot;&gt;&lt;b style=&quot;color: rgb(0, 0, 0); text-align: center;&quot;&gt;request_slot&lt;/b&gt;&lt;span style=&quot;color: rgb(0, 0, 0); font-weight: 400; text-align: center;&quot;&gt;&amp;nbsp;без привязки к реквесту существовать&amp;nbsp;&lt;/span&gt;&lt;b style=&quot;color: rgb(0, 0, 0); text-align: center;&quot;&gt;не могут!&amp;nbsp;&lt;/b&gt;&lt;b&gt;&lt;br&gt;&lt;/b&gt;&lt;/div&gt;&lt;div style=&quot;font-size: 12px;&quot;&gt;&lt;b style=&quot;color: rgb(0, 0, 0); text-align: center;&quot;&gt;&lt;br&gt;&lt;/b&gt;&lt;/div&gt;&lt;div style=&quot;font-size: 12px;&quot;&gt;&lt;font style=&quot;font-size: 13px; font-weight: 400;&quot; color=&quot;#000066&quot;&gt;&lt;u&gt;&lt;b style=&quot;background-color: rgb(255, 242, 204);&quot;&gt;GET&lt;/b&gt;&lt;/u&gt;&lt;/font&gt;&lt;span style=&quot;color: rgb(0, 0, 0); font-size: 13px; font-weight: 400; background-color: rgb(255, 242, 204);&quot;&gt;&lt;u&gt;&amp;nbsp;&lt;/u&gt;&lt;font color=&quot;#000066&quot;&gt;&lt;b&gt;&lt;u&gt;relationships:&lt;br&gt;&lt;/u&gt;&lt;br&gt;- project&lt;br&gt;&lt;span style=&quot;&quot;&gt;  &lt;/span&gt;- author&lt;br&gt;- request_slot&lt;br&gt;&lt;span style=&quot;white-space: pre;&quot;&gt; &lt;/span&gt;- booking (без связей)&lt;br&gt;&lt;span style=&quot;white-space: pre;&quot;&gt; &lt;/span&gt;- category&lt;/b&gt;&lt;/font&gt;&lt;/span&gt;&lt;b style=&quot;color: rgb(0, 0, 0); text-align: center;&quot;&gt;&lt;br&gt;&lt;/b&gt;&lt;/div&gt;&lt;div style=&quot;font-size: 12px;&quot;&gt;&lt;b style=&quot;color: rgb(0, 0, 0); text-align: center;&quot;&gt;&lt;br&gt;&lt;/b&gt;&lt;/div&gt;&lt;div style=&quot;font-size: 12px;&quot;&gt;&lt;b style=&quot;color: rgb(0, 0, 0); text-align: center;&quot;&gt;&lt;br&gt;&lt;/b&gt;&lt;/div&gt;&lt;/b&gt;&lt;span style=&quot;background-color: rgb(255, 242, 204);&quot;&gt;&lt;font color=&quot;#000066&quot;&gt;&lt;b&gt;&lt;u&gt;&lt;table&gt;&lt;tbody&gt;&lt;/tbody&gt;&lt;/table&gt;&lt;br&gt;&lt;/u&gt;&lt;br&gt;&lt;br&gt;&lt;/b&gt;&lt;/font&gt;&lt;/span&gt;&lt;blockquote style=&quot;margin: 0 0 0 40px; border: none; padding: 0px;&quot;&gt;&lt;blockquote style=&quot;margin: 0 0 0 40px; border: none; padding: 0px;&quot;&gt;&lt;font color=&quot;#000066&quot;&gt;&lt;span style=&quot;font-size: 12px;&quot;&gt;&lt;b&gt;&lt;div style=&quot;text-align: left;&quot;&gt;&lt;u style=&quot;background-color: initial; color: rgb(0, 0, 0); font-weight: 400; text-align: center;&quot;&gt;&lt;b&gt;&lt;span style=&quot;background-color: rgb(255, 229, 153);&quot;&gt;&lt;br&gt;&lt;/span&gt;&lt;/b&gt;&lt;/u&gt;&lt;/div&gt;&lt;div style=&quot;&quot;&gt;&lt;br&gt;&lt;/div&gt;&lt;div style=&quot;text-align: left;&quot;&gt;&lt;b&gt;&lt;br&gt;&lt;/b&gt;&lt;/div&gt;&lt;/b&gt;&lt;/span&gt;&lt;/font&gt;&lt;/blockquote&gt;&lt;/blockquote&gt;&lt;br&gt;&lt;p&gt;&lt;/p&gt;" style="text;html=1;strokeColor=#6c8ebf;fillColor=#dae8fc;spacing=5;spacingTop=-20;whiteSpace=wrap;overflow=hidden;rounded=0;fontSize=13;" parent="pV0ACqQaasXmKPG5yBSi-10" vertex="1">
          <mxGeometry y="360" width="680" height="480" as="geometry" />
        </mxCell>
        <mxCell id="pV0ACqQaasXmKPG5yBSi-14" value="&lt;h1&gt;/web_api/v1/idles&lt;/h1&gt;&lt;p&gt;&lt;/p&gt;&lt;table&gt;&lt;tbody&gt;&lt;tr&gt;&lt;td style=&quot;border: 1px solid rgb(0, 0, 0); border-collapse: collapse;&quot; border=&quot;1&quot;&gt;Действие&lt;/td&gt;&lt;td style=&quot;border: 1px solid rgb(0, 0, 0); border-collapse: collapse;&quot; border=&quot;1&quot;&gt;Данные&lt;/td&gt;&lt;/tr&gt;&lt;tr&gt;&lt;td style=&quot;border: 1px solid rgb(0, 0, 0); border-collapse: collapse;&quot; border=&quot;1&quot;&gt;GET&lt;/td&gt;&lt;td style=&quot;border: 1px solid rgb(0, 0, 0); border-collapse: collapse;&quot; border=&quot;1&quot;&gt;&lt;b&gt;-&lt;/b&gt;&lt;/td&gt;&lt;/tr&gt;&lt;tr&gt;&lt;td style=&quot;border: 1px solid rgb(0, 0, 0); border-collapse: collapse;&quot; border=&quot;1&quot;&gt;GET&lt;br&gt;/project_employee_requests/&lt;b&gt;project_employee_request.id&lt;/b&gt;/idles&lt;br&gt;&lt;/td&gt;&lt;td style=&quot;border: 1px solid rgb(0, 0, 0); border-collapse: collapse;&quot; border=&quot;1&quot;&gt;&lt;b&gt;project_employee_request.id&lt;/b&gt;&lt;br&gt;&lt;/td&gt;&lt;/tr&gt;&lt;tr&gt;&lt;td style=&quot;border: 1px solid rgb(0, 0, 0); border-collapse: collapse;&quot; border=&quot;1&quot;&gt;POST&lt;/td&gt;&lt;td style=&quot;border: 1px solid rgb(0, 0, 0); border-collapse: collapse;&quot; border=&quot;1&quot;&gt;comment, date, probability,&lt;b&gt;user, idleReason&lt;br&gt;&lt;/b&gt;&lt;b&gt;project&lt;/b&gt;&lt;b&gt;&lt;br&gt;&lt;/b&gt;&lt;/td&gt;&lt;/tr&gt;&lt;tr&gt;&lt;td style=&quot;border: 1px solid rgb(0, 0, 0); border-collapse: collapse;&quot; border=&quot;1&quot;&gt;&lt;b&gt;&lt;font color=&quot;#000066&quot;&gt;PATCH&lt;/font&gt;&lt;/b&gt;&lt;/td&gt;&lt;td style=&quot;border: 1px solid rgb(0, 0, 0); border-collapse: collapse;&quot; border=&quot;1&quot;&gt;comment, date, probability&lt;b&gt;, idleReason,&amp;nbsp;&lt;/b&gt;&lt;b&gt;project&lt;/b&gt;&lt;br&gt;&lt;/td&gt;&lt;/tr&gt;&lt;tr&gt;&lt;td style=&quot;border: 1px solid rgb(0, 0, 0); border-collapse: collapse;&quot; border=&quot;1&quot;&gt;DELETE&lt;br&gt;&lt;/td&gt;&lt;td style=&quot;border: 1px solid rgb(0, 0, 0); border-collapse: collapse;&quot; border=&quot;1&quot;&gt;&lt;b&gt;idle.id&lt;/b&gt;&lt;br&gt;&lt;/td&gt;&lt;/tr&gt;&lt;/tbody&gt;&lt;/table&gt;&lt;font color=&quot;#000066&quot;&gt;&lt;b&gt;&lt;u&gt;&lt;br&gt;&lt;/u&gt;&lt;/b&gt;&lt;u&gt;&lt;b style=&quot;background-color: rgb(255, 242, 204);&quot;&gt;GET&lt;/b&gt;&lt;/u&gt;&lt;/font&gt;&lt;span style=&quot;background-color: rgb(255, 242, 204);&quot;&gt;&lt;u&gt;&amp;nbsp;&lt;/u&gt;&lt;font color=&quot;#000066&quot;&gt;&lt;b&gt;&lt;u&gt;relationships:&lt;br&gt;&lt;/u&gt;&lt;br&gt;- userSkills&lt;br&gt;&lt;span style=&quot;white-space: pre;&quot;&gt; &lt;span style=&quot;white-space: pre;&quot;&gt; &lt;/span&gt;&lt;/span&gt;- skills&lt;br&gt;- CV&lt;br&gt;- slot (vacations)&lt;br&gt;- booking (без связей)&lt;br&gt;- category&lt;br&gt;&lt;/b&gt;&lt;/font&gt;&lt;/span&gt;&lt;blockquote style=&quot;margin: 0px 0px 0px 40px; border: none; padding: 0px;&quot;&gt;&lt;font color=&quot;#000066&quot;&gt;&lt;span style=&quot;font-size: 12px; text-align: center;&quot;&gt;&lt;div style=&quot;text-align: left;&quot;&gt;&lt;br&gt;&lt;/div&gt;&lt;/span&gt;&lt;/font&gt;&lt;/blockquote&gt;&lt;p&gt;&lt;/p&gt;" style="text;html=1;strokeColor=#6c8ebf;fillColor=#dae8fc;spacing=5;spacingTop=-20;whiteSpace=wrap;overflow=hidden;rounded=0;fontSize=13;" parent="pV0ACqQaasXmKPG5yBSi-10" vertex="1">
          <mxGeometry x="720" y="360" width="680" height="400" as="geometry" />
        </mxCell>
        <mxCell id="pV0ACqQaasXmKPG5yBSi-15" value="&lt;h1&gt;/web_api/v1/booking_history&lt;/h1&gt;&lt;p&gt;&lt;/p&gt;&lt;table&gt;&lt;tbody&gt;&lt;tr&gt;&lt;td style=&quot;border: 1px solid rgb(0, 0, 0); border-collapse: collapse;&quot; border=&quot;1&quot;&gt;&amp;nbsp;Действие&amp;nbsp;&lt;/td&gt;&lt;td style=&quot;border: 1px solid rgb(0, 0, 0); border-collapse: collapse;&quot; border=&quot;1&quot;&gt;&amp;nbsp;Данные&lt;/td&gt;&lt;/tr&gt;&lt;tr&gt;&lt;td style=&quot;border: 1px solid rgb(0, 0, 0); border-collapse: collapse;&quot; border=&quot;1&quot;&gt;&amp;nbsp;GET&lt;/td&gt;&lt;td style=&quot;border: 1px solid rgb(0, 0, 0); border-collapse: collapse;&quot; border=&quot;1&quot;&gt;&lt;b&gt;&amp;nbsp;user.id,&lt;/b&gt; page, per_page, q&lt;/td&gt;&lt;/tr&gt;&lt;tr&gt;&lt;td style=&quot;border: 1px solid rgb(0, 0, 0); border-collapse: collapse;&quot; border=&quot;1&quot;&gt;&lt;b&gt;&lt;font color=&quot;#000066&quot;&gt;&amp;nbsp;PATCH&lt;/font&gt;&lt;/b&gt;&lt;br&gt;&lt;/td&gt;&lt;td style=&quot;border: 1px solid rgb(0, 0, 0); border-collapse: collapse;&quot; border=&quot;1&quot;&gt;&lt;b&gt;&amp;nbsp;booking_history.id,&amp;nbsp;&lt;/b&gt;comment&amp;nbsp;&lt;/td&gt;&lt;/tr&gt;&lt;tr&gt;&lt;td style=&quot;border: 1px solid rgb(0, 0, 0); border-collapse: collapse;&quot; border=&quot;1&quot;&gt;&amp;nbsp;DELETE&lt;/td&gt;&lt;td style=&quot;border: 1px solid rgb(0, 0, 0); border-collapse: collapse;&quot; border=&quot;1&quot;&gt;&lt;b&gt;&amp;nbsp;booking_history.id&lt;br&gt;&lt;/b&gt;&lt;/td&gt;&lt;/tr&gt;&lt;/tbody&gt;&lt;/table&gt;&lt;br&gt;&lt;br&gt;&lt;p&gt;&lt;/p&gt;" style="text;html=1;strokeColor=#6c8ebf;fillColor=#dae8fc;spacing=5;spacingTop=-20;whiteSpace=wrap;overflow=hidden;rounded=0;fontSize=13;" parent="pV0ACqQaasXmKPG5yBSi-10" vertex="1">
          <mxGeometry x="360" y="1240" width="400" height="200" as="geometry" />
        </mxCell>
        <mxCell id="pV0ACqQaasXmKPG5yBSi-16" value="&lt;h1&gt;/web_api/v1/request_slots&lt;/h1&gt;&lt;p&gt;&lt;/p&gt;&lt;table style=&quot;border: 1px solid rgb(0, 0, 0); border-collapse: collapse;&quot; border=&quot;1&quot;&gt;&lt;tbody&gt;&lt;tr&gt;&lt;td style=&quot;border-collapse: collapse;&quot; border=&quot;1&quot;&gt;Действие&lt;/td&gt;&lt;td style=&quot;border-collapse: collapse;&quot; border=&quot;1&quot;&gt;Данные&lt;/td&gt;&lt;/tr&gt;&lt;tr&gt;&lt;td style=&quot;border-collapse: collapse;&quot; border=&quot;1&quot;&gt;&lt;strike&gt;GET&lt;/strike&gt;&lt;/td&gt;&lt;td style=&quot;border-collapse: collapse;&quot; border=&quot;1&quot;&gt;&lt;b&gt;&lt;strike&gt;project_employee_request.id || -&lt;/strike&gt;&lt;/b&gt;&lt;/td&gt;&lt;/tr&gt;&lt;tr&gt;&lt;td style=&quot;border-collapse: collapse;&quot; border=&quot;1&quot;&gt;POST&lt;/td&gt;&lt;td style=&quot;border-collapse: collapse;&quot; border=&quot;1&quot;&gt;rate, startTime, selectedDate, englishLevel, probability, grades, timeZoneTolerance, workdayTimeZone, description&lt;/td&gt;&lt;/tr&gt;&lt;tr&gt;&lt;td style=&quot;border-collapse: collapse;&quot; border=&quot;1&quot;&gt;PATCH&lt;/td&gt;&lt;td style=&quot;border-collapse: collapse;&quot; border=&quot;1&quot;&gt;rate, startTime, selectedDate, englishLevel, probability, grades, timeZoneTolerance, workdayTimeZone, description&lt;br&gt;&lt;/td&gt;&lt;/tr&gt;&lt;tr&gt;&lt;td style=&quot;border-collapse: collapse;&quot; border=&quot;1&quot;&gt;DELETE&lt;/td&gt;&lt;td style=&quot;border-collapse: collapse;&quot; border=&quot;1&quot;&gt;&lt;b&gt;request_slot.id&lt;/b&gt;&lt;br&gt;&lt;/td&gt;&lt;/tr&gt;&lt;tr&gt;&lt;td style=&quot;border-collapse: collapse;&quot; border=&quot;1&quot;&gt;&lt;strike&gt;PATCH&lt;br&gt;/request_slots/&lt;b&gt;request_slot.id&lt;/b&gt;/approve&lt;/strike&gt;&lt;/td&gt;&lt;td style=&quot;border-collapse: collapse;&quot; border=&quot;1&quot;&gt;&lt;strike&gt;&lt;b&gt;request_slot.id,&amp;nbsp;&lt;/b&gt;&lt;b&gt;project_employee_request.id, &lt;/b&gt;comment, planned, startDate&lt;br&gt;&lt;/strike&gt;&lt;/td&gt;&lt;/tr&gt;&lt;tr&gt;&lt;td&gt;&lt;strike&gt;PATCH&lt;br&gt;/request_slots/&lt;b&gt;request_slot.id&lt;/b&gt;/revert_approving&lt;br&gt;&lt;/strike&gt;&lt;/td&gt;&lt;td&gt;&lt;b&gt;&lt;strike&gt;request_slot.id&lt;/strike&gt;&lt;/b&gt;&lt;br&gt;&lt;/td&gt;&lt;/tr&gt;&lt;/tbody&gt;&lt;/table&gt;&lt;table&gt;&lt;tbody&gt;&lt;/tbody&gt;&lt;/table&gt;&lt;font color=&quot;#000066&quot;&gt;&lt;b&gt;&lt;u&gt;&lt;br&gt;&lt;br&gt;&lt;span style=&quot;background-color: rgb(255, 242, 204);&quot;&gt;Вытащить 2 последних PATCH в /idle_booking&lt;br&gt;&lt;/span&gt;&lt;/u&gt;&lt;/b&gt;&lt;/font&gt;&lt;u&gt;&lt;font style=&quot;background-color: rgb(255, 242, 204);&quot; color=&quot;#000066&quot;&gt;И перенести работу со слотами в ендпоинт&amp;nbsp; &lt;b&gt;/project_employee_request (вложенные ресурсы)&lt;/b&gt;&lt;/font&gt;&lt;/u&gt;&lt;br&gt;&lt;p&gt;&lt;/p&gt;" style="text;html=1;strokeColor=#6c8ebf;fillColor=#dae8fc;spacing=5;spacingTop=-20;whiteSpace=wrap;overflow=hidden;rounded=0;fontSize=13;" parent="pV0ACqQaasXmKPG5yBSi-10" vertex="1">
          <mxGeometry y="880" width="680" height="320" as="geometry" />
        </mxCell>
        <mxCell id="pV0ACqQaasXmKPG5yBSi-17" value="&lt;h1&gt;/web_api/v1/idle_booking&lt;/h1&gt;&lt;p&gt;&lt;/p&gt;&lt;table style=&quot;border: 1px solid rgb(0, 0, 0); border-collapse: collapse;&quot; border=&quot;1&quot;&gt;&lt;tbody&gt;&lt;tr&gt;&lt;td style=&quot;border-collapse: collapse;&quot; border=&quot;1&quot;&gt;&amp;nbsp;Действие&amp;nbsp;&lt;/td&gt;&lt;td style=&quot;border-collapse: collapse;&quot; border=&quot;1&quot;&gt;&amp;nbsp;Данные&lt;/td&gt;&lt;/tr&gt;&lt;tr&gt;&lt;td style=&quot;border-collapse: collapse;&quot; border=&quot;1&quot;&gt;&amp;nbsp;POST&amp;nbsp;&lt;/td&gt;&lt;td style=&quot;border-collapse: collapse;&quot; border=&quot;1&quot;&gt;&amp;nbsp;operativeComment,&lt;b&gt; idle.id, request_slot.id, author.id&amp;nbsp;&lt;/b&gt;&lt;/td&gt;&lt;/tr&gt;&lt;tr&gt;&lt;td style=&quot;border-collapse: collapse;&quot; border=&quot;1&quot;&gt;&lt;b&gt;&lt;font color=&quot;#000066&quot;&gt;&amp;nbsp;PATCH&lt;/font&gt;&lt;/b&gt;&amp;nbsp;&amp;nbsp;&lt;/td&gt;&lt;td style=&quot;border-collapse: collapse;&quot; border=&quot;1&quot;&gt;&amp;nbsp;operativeComment, &lt;b&gt;idle_booking.id&lt;/b&gt;, planned, startDate&amp;nbsp;&lt;br&gt;&lt;/td&gt;&lt;/tr&gt;&lt;tr&gt;&lt;td style=&quot;border-collapse: collapse;&quot; border=&quot;1&quot;&gt;&amp;nbsp;DELETE&amp;nbsp;&lt;/td&gt;&lt;td style=&quot;border-collapse: collapse;&quot; border=&quot;1&quot;&gt;&lt;b&gt;&lt;strike&gt;&amp;nbsp;request_slot.id,&amp;nbsp;&lt;/strike&gt;&lt;/b&gt;&lt;b&gt;&lt;strike&gt;idle.id,&lt;/strike&gt; &lt;/b&gt;resultantComment&amp;nbsp;&lt;br&gt;&lt;/td&gt;&lt;/tr&gt;&lt;/tbody&gt;&lt;/table&gt;&lt;table&gt;&lt;tbody&gt;&lt;/tbody&gt;&lt;/table&gt;&lt;font color=&quot;#000066&quot;&gt;&lt;b&gt;&lt;u&gt;&lt;br&gt;&lt;/u&gt;&lt;/b&gt;&lt;/font&gt;&lt;u&gt;&lt;b style=&quot;color: rgb(0, 0, 102);&quot;&gt;Утащить PATCH&amp;nbsp;&lt;/b&gt;&lt;font color=&quot;#000066&quot;&gt;/request_slots/&lt;b style=&quot;&quot;&gt;request_slot.id&lt;/b&gt;/approve и&amp;nbsp;/request_slots/&lt;b style=&quot;&quot;&gt;request_slot.id&lt;/b&gt;/revert_approving&lt;/font&gt;&lt;b style=&quot;color: rgb(0, 0, 102);&quot;&gt;&lt;br&gt;из /request_slots&lt;/b&gt;&lt;/u&gt;&lt;b style=&quot;color: rgb(0, 0, 102);&quot;&gt;&lt;u&gt;&lt;br&gt;Апрув, реверт апрува и смену коментария сделать теперь через 1 PATCH. (разрешить менять статус).&lt;br&gt;&lt;br&gt;&lt;/u&gt;&lt;/b&gt;&lt;font color=&quot;#000066&quot;&gt;&lt;u&gt;&lt;b style=&quot;background-color: rgb(255, 242, 204);&quot;&gt;GET&lt;/b&gt;&lt;/u&gt;&lt;/font&gt;&lt;span style=&quot;background-color: rgb(255, 242, 204);&quot;&gt;&lt;u&gt;&amp;nbsp;&lt;/u&gt;&lt;font color=&quot;#000066&quot;&gt;&lt;b&gt;&lt;u&gt;relationships:&lt;br&gt;&lt;/u&gt;&lt;br&gt;- idle (без связей)&lt;br&gt;&lt;span style=&quot;&quot;&gt; &lt;/span&gt;- request_slot (без связей)&lt;/b&gt;&lt;/font&gt;&lt;/span&gt;&lt;span style=&quot;background-color: rgb(255, 242, 204);&quot;&gt;&lt;font color=&quot;#000066&quot;&gt;&lt;b&gt;&lt;br&gt;- author&lt;/b&gt;&lt;/font&gt;&lt;/span&gt;&lt;b style=&quot;color: rgb(0, 0, 102);&quot;&gt;&lt;u&gt;&lt;br&gt;&lt;br&gt;&lt;/u&gt;&lt;/b&gt;&lt;p&gt;&lt;/p&gt;" style="text;html=1;strokeColor=#6c8ebf;fillColor=#dae8fc;spacing=5;spacingTop=-20;whiteSpace=wrap;overflow=hidden;rounded=0;fontSize=13;" parent="pV0ACqQaasXmKPG5yBSi-10" vertex="1">
          <mxGeometry x="720" y="800" width="680" height="320" as="geometry" />
        </mxCell>
        <mxCell id="pV0ACqQaasXmKPG5yBSi-18" value="&lt;h1&gt;Фильтр айдлов по позициям в урле&lt;/h1&gt;&lt;p&gt;Айдлы фильтруются по грейдам и категориям, которые приходят из &lt;b&gt;/web_api/v1/positions. &lt;/b&gt;Так же айдлы фильтруются по статусу: мы не должны видеть айдлы в статусе approved, но при этом они должны лежать в сторе для корректного отображения апрувнутых броней в слотах&lt;/p&gt;" style="text;html=1;strokeColor=#d6b656;fillColor=#fff2cc;spacing=5;spacingTop=-20;whiteSpace=wrap;overflow=hidden;rounded=0;" parent="pV0ACqQaasXmKPG5yBSi-10" vertex="1">
          <mxGeometry x="720" y="200" width="360" height="160" as="geometry" />
        </mxCell>
        <mxCell id="pV0ACqQaasXmKPG5yBSi-19" value="&lt;h1&gt;/web_api/v1/idles/finances&lt;/h1&gt;&lt;p&gt;&lt;/p&gt;&lt;table&gt;&lt;tbody style=&quot;&quot;&gt;&lt;tr&gt;&lt;td style=&quot;border: 1px solid rgb(0, 0, 0); border-collapse: collapse;&quot; border=&quot;1&quot;&gt;&amp;nbsp;Действие&amp;nbsp;&lt;/td&gt;&lt;td style=&quot;border: 1px solid rgb(0, 0, 0); border-collapse: collapse;&quot; border=&quot;1&quot;&gt;&amp;nbsp;Данные&lt;/td&gt;&lt;/tr&gt;&lt;tr&gt;&lt;td style=&quot;border: 1px solid rgb(0, 0, 0); border-collapse: collapse;&quot; border=&quot;1&quot;&gt;&amp;nbsp;GET&lt;/td&gt;&lt;td style=&quot;border: 1px solid rgb(0, 0, 0); border-collapse: collapse;&quot; border=&quot;1&quot;&gt;&lt;b&gt;&amp;nbsp;idle.id | -&lt;/b&gt;&lt;/td&gt;&lt;/tr&gt;&lt;tr&gt;&lt;td style=&quot;border: 1px solid rgb(0, 0, 0); border-collapse: collapse;&quot; border=&quot;1&quot;&gt;&lt;b style=&quot;color: rgb(0, 0, 102);&quot;&gt;&amp;nbsp;&lt;/b&gt;GET (для отображения&amp;nbsp;информации в слотах архивных заявок)&lt;br&gt;&lt;b style=&quot;color: rgb(0, 0, 102);&quot;&gt;&amp;nbsp;&lt;/b&gt;/project_employee_requests/&lt;b&gt;project_employee_request.id&lt;/b&gt;&lt;span style=&quot;font-family: &amp;quot;JetBrains Mono&amp;quot;, monospace;&quot;&gt;/idles/finances&amp;nbsp;&lt;/span&gt;&lt;/td&gt;&lt;td style=&quot;border: 1px solid rgb(0, 0, 0); border-collapse: collapse;&quot; border=&quot;1&quot;&gt;&lt;b&gt;&amp;nbsp;&lt;/b&gt;&lt;b&gt;project_employee_request.id&lt;/b&gt;&amp;nbsp;&lt;/td&gt;&lt;/tr&gt;&lt;tr style=&quot;&quot;&gt;&lt;td style=&quot;border: 1px solid rgb(0, 0, 0); border-collapse: collapse;&quot; border=&quot;1&quot;&gt;&amp;nbsp;GET&lt;br&gt;&lt;b style=&quot;color: rgb(0, 0, 102);&quot;&gt;&amp;nbsp;&lt;/b&gt;/idles/&lt;b&gt;idle.id&lt;/b&gt;/financial_efficiency&lt;br&gt;&lt;/td&gt;&lt;td style=&quot;border: 1px solid rgb(0, 0, 0); border-collapse: collapse;&quot; border=&quot;1&quot;&gt;&lt;b&gt;&amp;nbsp;idle.id&lt;br&gt;&lt;/b&gt;&lt;/td&gt;&lt;/tr&gt;&lt;/tbody&gt;&lt;/table&gt;&lt;br&gt;&lt;br&gt;&lt;p&gt;&lt;/p&gt;" style="text;html=1;strokeColor=#6c8ebf;fillColor=#dae8fc;spacing=5;spacingTop=-20;whiteSpace=wrap;overflow=hidden;rounded=0;fontSize=13;" parent="pV0ACqQaasXmKPG5yBSi-10" vertex="1">
          <mxGeometry x="800" y="1160" width="750" height="200" as="geometry" />
        </mxCell>
        <mxCell id="pV0ACqQaasXmKPG5yBSi-20" value="&lt;h1&gt;/web_api/v1/idles/users&lt;/h1&gt;&lt;p&gt;&lt;/p&gt;Используется для вывода списка пользователей, фильтрованных по переданной строке в селекте выбора пользователя на форме создания idle&lt;br&gt;&lt;br&gt;&lt;table&gt;&lt;tbody style=&quot;&quot;&gt;&lt;tr&gt;&lt;td style=&quot;border: 1px solid rgb(0, 0, 0); border-collapse: collapse;&quot; border=&quot;1&quot;&gt;&amp;nbsp;Действие&amp;nbsp;&lt;/td&gt;&lt;td style=&quot;border: 1px solid rgb(0, 0, 0); border-collapse: collapse;&quot; border=&quot;1&quot;&gt;&amp;nbsp;Данные&lt;/td&gt;&lt;/tr&gt;&lt;tr&gt;&lt;td style=&quot;border: 1px solid rgb(0, 0, 0); border-collapse: collapse;&quot; border=&quot;1&quot;&gt;&amp;nbsp;GET&lt;/td&gt;&lt;td style=&quot;border: 1px solid rgb(0, 0, 0); border-collapse: collapse;&quot; border=&quot;1&quot;&gt;&lt;b&gt;&amp;nbsp;&lt;/b&gt;q (любая строка)&lt;/td&gt;&lt;/tr&gt;&lt;/tbody&gt;&lt;/table&gt;&lt;br&gt;&lt;br&gt;&lt;p&gt;&lt;/p&gt;" style="text;html=1;strokeColor=#6c8ebf;fillColor=#dae8fc;spacing=5;spacingTop=-20;whiteSpace=wrap;overflow=hidden;rounded=0;fontSize=13;" parent="pV0ACqQaasXmKPG5yBSi-10" vertex="1">
          <mxGeometry y="1240" width="320" height="200" as="geometry" />
        </mxCell>
        <mxCell id="pV0ACqQaasXmKPG5yBSi-21" value="&lt;h1&gt;/web_api/v1/positions&lt;/h1&gt;&lt;p&gt;&lt;/p&gt;&lt;div&gt;Используется для вывода фильтра по позициям&amp;nbsp;&lt;/div&gt;&lt;div&gt;&lt;br&gt;&lt;/div&gt;&lt;table&gt;&lt;tbody style=&quot;&quot;&gt;&lt;tr&gt;&lt;td style=&quot;border: 1px solid rgb(0, 0, 0); border-collapse: collapse;&quot; border=&quot;1&quot;&gt;&amp;nbsp;Действие&amp;nbsp;&lt;/td&gt;&lt;td style=&quot;border: 1px solid rgb(0, 0, 0); border-collapse: collapse;&quot; border=&quot;1&quot;&gt;&amp;nbsp;Данные&lt;/td&gt;&lt;/tr&gt;&lt;tr&gt;&lt;td style=&quot;border: 1px solid rgb(0, 0, 0); border-collapse: collapse;&quot; border=&quot;1&quot;&gt;&amp;nbsp;GET&lt;/td&gt;&lt;td style=&quot;border: 1px solid rgb(0, 0, 0); border-collapse: collapse;&quot; border=&quot;1&quot;&gt;&lt;b&gt;&amp;nbsp;-&lt;/b&gt;&lt;/td&gt;&lt;/tr&gt;&lt;/tbody&gt;&lt;/table&gt;&lt;br&gt;&lt;br&gt;&lt;p&gt;&lt;/p&gt;" style="text;html=1;strokeColor=#6c8ebf;fillColor=#dae8fc;spacing=5;spacingTop=-20;whiteSpace=wrap;overflow=hidden;rounded=0;fontSize=13;" parent="pV0ACqQaasXmKPG5yBSi-10" vertex="1">
          <mxGeometry x="440" width="280" height="160" as="geometry" />
        </mxCell>
        <mxCell id="pV0ACqQaasXmKPG5yBSi-22" value="&lt;h1&gt;/web_api/v1/projects&lt;/h1&gt;&lt;div&gt;Используется для вывода проектов в селектах создания/редактирования заявки/айдла&lt;/div&gt;&lt;table&gt;&lt;tbody style=&quot;&quot;&gt;&lt;tr&gt;&lt;td style=&quot;border: 1px solid rgb(0, 0, 0); border-collapse: collapse;&quot; border=&quot;1&quot;&gt;&amp;nbsp;Действие&amp;nbsp;&lt;/td&gt;&lt;td style=&quot;border: 1px solid rgb(0, 0, 0); border-collapse: collapse;&quot; border=&quot;1&quot;&gt;&amp;nbsp;Данные&lt;/td&gt;&lt;/tr&gt;&lt;tr&gt;&lt;td style=&quot;border: 1px solid rgb(0, 0, 0); border-collapse: collapse;&quot; border=&quot;1&quot;&gt;&amp;nbsp;GET&lt;/td&gt;&lt;td style=&quot;border: 1px solid rgb(0, 0, 0); border-collapse: collapse;&quot; border=&quot;1&quot;&gt;&lt;b&gt;&amp;nbsp;-&lt;/b&gt;&lt;/td&gt;&lt;/tr&gt;&lt;/tbody&gt;&lt;/table&gt;&lt;br&gt;&lt;br&gt;&lt;p&gt;&lt;/p&gt;" style="text;html=1;strokeColor=#6c8ebf;fillColor=#dae8fc;spacing=5;spacingTop=-20;whiteSpace=wrap;overflow=hidden;rounded=0;fontSize=13;" parent="pV0ACqQaasXmKPG5yBSi-10" vertex="1">
          <mxGeometry x="1120" width="280" height="160" as="geometry" />
        </mxCell>
        <mxCell id="pV0ACqQaasXmKPG5yBSi-23" value="&lt;h1&gt;/web_api/v1/time_zones&lt;/h1&gt;&lt;p&gt;&lt;/p&gt;Используется для вывода списка тайм зон на форме создания/редактирования слота&amp;nbsp;&lt;br&gt;&lt;br&gt;&lt;table&gt;&lt;tbody style=&quot;&quot;&gt;&lt;tr&gt;&lt;td style=&quot;border: 1px solid rgb(0, 0, 0); border-collapse: collapse;&quot; border=&quot;1&quot;&gt;&amp;nbsp;Действие&amp;nbsp;&lt;/td&gt;&lt;td style=&quot;border: 1px solid rgb(0, 0, 0); border-collapse: collapse;&quot; border=&quot;1&quot;&gt;&amp;nbsp;Данные&lt;/td&gt;&lt;/tr&gt;&lt;tr&gt;&lt;td style=&quot;border: 1px solid rgb(0, 0, 0); border-collapse: collapse;&quot; border=&quot;1&quot;&gt;&amp;nbsp;GET&lt;/td&gt;&lt;td style=&quot;border: 1px solid rgb(0, 0, 0); border-collapse: collapse;&quot; border=&quot;1&quot;&gt;&lt;b&gt;&amp;nbsp;-&lt;/b&gt;&lt;/td&gt;&lt;/tr&gt;&lt;/tbody&gt;&lt;/table&gt;&lt;br&gt;&lt;br&gt;&lt;p&gt;&lt;/p&gt;" style="text;html=1;strokeColor=#6c8ebf;fillColor=#dae8fc;spacing=5;spacingTop=-20;whiteSpace=wrap;overflow=hidden;rounded=0;fontSize=13;" parent="pV0ACqQaasXmKPG5yBSi-10" vertex="1">
          <mxGeometry x="760" width="320" height="160" as="geometry" />
        </mxCell>
        <mxCell id="pV0ACqQaasXmKPG5yBSi-24" value="&lt;h1&gt;/web_api/v1/categories&lt;/h1&gt;&lt;p&gt;&lt;/p&gt;&lt;div&gt;Используется для вывода категорий на форме создания/редактирования заявки&amp;nbsp;&lt;/div&gt;&lt;div&gt;&lt;br&gt;&lt;/div&gt;&lt;table&gt;&lt;tbody style=&quot;&quot;&gt;&lt;tr&gt;&lt;td style=&quot;border: 1px solid rgb(0, 0, 0); border-collapse: collapse;&quot; border=&quot;1&quot;&gt;&amp;nbsp;Действие&amp;nbsp;&lt;/td&gt;&lt;td style=&quot;border: 1px solid rgb(0, 0, 0); border-collapse: collapse;&quot; border=&quot;1&quot;&gt;&amp;nbsp;Данные&lt;/td&gt;&lt;/tr&gt;&lt;tr&gt;&lt;td style=&quot;border: 1px solid rgb(0, 0, 0); border-collapse: collapse;&quot; border=&quot;1&quot;&gt;&amp;nbsp;GET&lt;/td&gt;&lt;td style=&quot;border: 1px solid rgb(0, 0, 0); border-collapse: collapse;&quot; border=&quot;1&quot;&gt;&lt;b&gt;&amp;nbsp;-&lt;/b&gt;&lt;/td&gt;&lt;/tr&gt;&lt;/tbody&gt;&lt;/table&gt;&lt;br&gt;&lt;br&gt;&lt;p&gt;&lt;/p&gt;" style="text;html=1;strokeColor=#6c8ebf;fillColor=#dae8fc;spacing=5;spacingTop=-20;whiteSpace=wrap;overflow=hidden;rounded=0;fontSize=13;" parent="pV0ACqQaasXmKPG5yBSi-10" vertex="1">
          <mxGeometry x="80" width="320" height="160" as="geometry" />
        </mxCell>
        <mxCell id="9PKmdSWXKy-cSl1SnKVV-16" value="&lt;h1&gt;/web_api/v1/grade_kinds&lt;/h1&gt;&lt;p&gt;&lt;/p&gt;&lt;div&gt;Используется для вывода грейдов на форме создания/редактирования слота&lt;/div&gt;&lt;div&gt;&lt;br&gt;&lt;/div&gt;&lt;table&gt;&lt;tbody style=&quot;&quot;&gt;&lt;tr&gt;&lt;td style=&quot;border: 1px solid rgb(0, 0, 0); border-collapse: collapse;&quot; border=&quot;1&quot;&gt;&amp;nbsp;Действие&amp;nbsp;&lt;/td&gt;&lt;td style=&quot;border: 1px solid rgb(0, 0, 0); border-collapse: collapse;&quot; border=&quot;1&quot;&gt;&amp;nbsp;Данные&lt;/td&gt;&lt;/tr&gt;&lt;tr&gt;&lt;td style=&quot;border: 1px solid rgb(0, 0, 0); border-collapse: collapse;&quot; border=&quot;1&quot;&gt;&amp;nbsp;GET&lt;/td&gt;&lt;td style=&quot;border: 1px solid rgb(0, 0, 0); border-collapse: collapse;&quot; border=&quot;1&quot;&gt;&lt;b&gt;&amp;nbsp;-&lt;/b&gt;&lt;/td&gt;&lt;/tr&gt;&lt;/tbody&gt;&lt;/table&gt;&lt;br&gt;&lt;br&gt;&lt;p&gt;&lt;/p&gt;" style="text;html=1;strokeColor=#6c8ebf;fillColor=#dae8fc;spacing=5;spacingTop=-20;whiteSpace=wrap;overflow=hidden;rounded=0;fontSize=13;" vertex="1" parent="pV0ACqQaasXmKPG5yBSi-10">
          <mxGeometry x="1120" y="200" width="320" height="150" as="geometry" />
        </mxCell>
        <mxCell id="pV0ACqQaasXmKPG5yBSi-25" value="" style="group" parent="1" vertex="1" connectable="0">
          <mxGeometry x="110" y="1300" width="1240" height="940" as="geometry" />
        </mxCell>
        <mxCell id="pV0ACqQaasXmKPG5yBSi-26" value="Skill" style="swimlane;fontSize=15;" parent="pV0ACqQaasXmKPG5yBSi-25" vertex="1">
          <mxGeometry y="190" width="120" height="110" as="geometry" />
        </mxCell>
        <mxCell id="pV0ACqQaasXmKPG5yBSi-27" value="&lt;p style=&quot;text-align: left; font-size: 15px;&quot;&gt;&lt;span style=&quot;font-family: noto_regular; color: rgb(75, 75, 75); font-size: 15px;&quot;&gt;- name&lt;/span&gt;&lt;/p&gt;&lt;p style=&quot;text-align: left; font-size: 15px;&quot;&gt;&lt;span style=&quot;font-family: noto_regular; color: rgb(75, 75, 75); font-size: 15px;&quot;&gt;- priority&lt;/span&gt;&lt;/p&gt;" style="text;html=1;align=center;verticalAlign=middle;resizable=0;points=[];autosize=1;strokeColor=none;fillColor=none;fontSize=15;" parent="pV0ACqQaasXmKPG5yBSi-26" vertex="1">
          <mxGeometry x="5" y="20" width="70" height="90" as="geometry" />
        </mxCell>
        <mxCell id="pV0ACqQaasXmKPG5yBSi-28" value="CV" style="swimlane;startSize=23;fontSize=15;" parent="pV0ACqQaasXmKPG5yBSi-25" vertex="1">
          <mxGeometry y="440" width="120" height="110" as="geometry" />
        </mxCell>
        <mxCell id="pV0ACqQaasXmKPG5yBSi-29" value="&lt;p style=&quot;text-align: left; font-size: 15px;&quot;&gt;&lt;span style=&quot;font-family: noto_regular; font-size: 15px;&quot;&gt;- gLink&lt;/span&gt;&lt;/p&gt;&lt;p style=&quot;text-align: left; font-size: 15px;&quot;&gt;&lt;span style=&quot;font-family: noto_regular; font-size: 15px;&quot;&gt;- linkToCvFile&lt;/span&gt;&lt;/p&gt;" style="text;html=1;align=center;verticalAlign=middle;resizable=0;points=[];autosize=1;strokeColor=none;fillColor=none;container=1;fontSize=15;" parent="pV0ACqQaasXmKPG5yBSi-28" vertex="1">
          <mxGeometry x="5" y="20" width="100" height="90" as="geometry" />
        </mxCell>
        <mxCell id="pV0ACqQaasXmKPG5yBSi-30" style="edgeStyle=orthogonalEdgeStyle;rounded=0;orthogonalLoop=1;jettySize=auto;html=1;entryX=0.75;entryY=1;entryDx=0;entryDy=0;fontSize=15;" parent="pV0ACqQaasXmKPG5yBSi-25" source="pV0ACqQaasXmKPG5yBSi-32" target="pV0ACqQaasXmKPG5yBSi-26" edge="1">
          <mxGeometry relative="1" as="geometry">
            <Array as="points">
              <mxPoint x="90" y="310" />
              <mxPoint x="90" y="310" />
            </Array>
          </mxGeometry>
        </mxCell>
        <mxCell id="pV0ACqQaasXmKPG5yBSi-31" style="edgeStyle=orthogonalEdgeStyle;rounded=0;orthogonalLoop=1;jettySize=auto;html=1;fontSize=15;fontColor=#000066;startArrow=none;" parent="pV0ACqQaasXmKPG5yBSi-25" edge="1">
          <mxGeometry relative="1" as="geometry">
            <mxPoint x="260" y="350" as="targetPoint" />
            <mxPoint x="120" y="350" as="sourcePoint" />
            <Array as="points">
              <mxPoint x="150" y="350" />
              <mxPoint x="150" y="350" />
            </Array>
          </mxGeometry>
        </mxCell>
        <mxCell id="pV0ACqQaasXmKPG5yBSi-32" value="Users Skills" style="swimlane;startSize=23;fontSize=15;" parent="pV0ACqQaasXmKPG5yBSi-25" vertex="1">
          <mxGeometry y="320" width="120" height="110" as="geometry">
            <mxRectangle x="40" y="160" width="100" height="23" as="alternateBounds" />
          </mxGeometry>
        </mxCell>
        <mxCell id="pV0ACqQaasXmKPG5yBSi-33" value="&lt;p style=&quot;text-align: left; font-size: 15px;&quot;&gt;&lt;span style=&quot;font-family: noto_regular; color: rgb(75, 75, 75); font-size: 15px;&quot;&gt;- rate&lt;/span&gt;&lt;/p&gt;&lt;p style=&quot;text-align: left; font-size: 15px;&quot;&gt;&lt;span style=&quot;font-family: noto_regular; color: rgb(75, 75, 75); font-size: 15px;&quot;&gt;- priority&lt;/span&gt;&lt;/p&gt;" style="text;html=1;align=center;verticalAlign=middle;resizable=0;points=[];autosize=1;strokeColor=none;fillColor=none;container=1;fontSize=15;" parent="pV0ACqQaasXmKPG5yBSi-32" vertex="1">
          <mxGeometry x="5" y="20" width="70" height="90" as="geometry" />
        </mxCell>
        <mxCell id="pV0ACqQaasXmKPG5yBSi-34" value="Slot" style="swimlane;startSize=23;fontSize=15;" parent="pV0ACqQaasXmKPG5yBSi-25" vertex="1">
          <mxGeometry y="560" width="120" height="205" as="geometry" />
        </mxCell>
        <mxCell id="pV0ACqQaasXmKPG5yBSi-35" value="&lt;p style=&quot;text-align: left; font-size: 15px;&quot;&gt;&lt;span style=&quot;font-family: noto_regular; color: rgb(75, 75, 75); font-size: 15px;&quot;&gt;- beginDate&lt;/span&gt;&lt;/p&gt;&lt;p style=&quot;text-align: left; font-size: 15px;&quot;&gt;&lt;span style=&quot;font-family: noto_regular; color: rgb(75, 75, 75); font-size: 15px;&quot;&gt;- endDate &lt;/span&gt;&lt;/p&gt;&lt;p style=&quot;text-align: left; font-size: 15px;&quot;&gt;&lt;span style=&quot;font-family: noto_regular; color: rgb(75, 75, 75); font-size: 15px;&quot;&gt;- isApproved&lt;/span&gt;&lt;/p&gt;&lt;p style=&quot;text-align: left; font-size: 15px;&quot;&gt;&lt;span style=&quot;font-family: noto_regular; color: rgb(75, 75, 75); font-size: 15px;&quot;&gt;- isVacation&lt;/span&gt;&lt;/p&gt;&lt;p style=&quot;text-align: left; font-size: 15px;&quot;&gt;&lt;span style=&quot;font-family: noto_regular; color: rgb(75, 75, 75); font-size: 15px;&quot;&gt;- isSickLeave&lt;/span&gt;&lt;/p&gt;" style="text;html=1;align=center;verticalAlign=middle;resizable=0;points=[];autosize=1;strokeColor=none;fillColor=none;container=1;fontSize=15;" parent="pV0ACqQaasXmKPG5yBSi-34" vertex="1">
          <mxGeometry x="5" y="15" width="100" height="190" as="geometry" />
        </mxCell>
        <mxCell id="pV0ACqQaasXmKPG5yBSi-36" value="Profile" style="swimlane;fontSize=15;" parent="pV0ACqQaasXmKPG5yBSi-25" vertex="1">
          <mxGeometry y="770" width="120" height="75" as="geometry" />
        </mxCell>
        <mxCell id="pV0ACqQaasXmKPG5yBSi-37" value="&lt;p style=&quot;text-align: left; font-size: 15px;&quot;&gt;&lt;font face=&quot;noto_regular&quot; color=&quot;#4b4b4b&quot; style=&quot;font-size: 15px;&quot;&gt;&lt;span style=&quot;font-size: 15px;&quot;&gt;- timeZone&lt;/span&gt;&lt;/font&gt;&lt;/p&gt;" style="text;html=1;align=center;verticalAlign=middle;resizable=0;points=[];autosize=1;strokeColor=none;fillColor=none;fontSize=15;" parent="pV0ACqQaasXmKPG5yBSi-36" vertex="1">
          <mxGeometry y="25" width="80" height="50" as="geometry" />
        </mxCell>
        <mxCell id="pV0ACqQaasXmKPG5yBSi-38" value="Idle Reason" style="swimlane;fontSize=15;" parent="pV0ACqQaasXmKPG5yBSi-25" vertex="1">
          <mxGeometry y="110" width="120" height="75" as="geometry" />
        </mxCell>
        <mxCell id="pV0ACqQaasXmKPG5yBSi-39" value="&lt;p style=&quot;text-align: left; font-size: 15px;&quot;&gt;&lt;font face=&quot;noto_regular&quot; color=&quot;#4b4b4b&quot; style=&quot;font-size: 15px;&quot;&gt;&lt;span style=&quot;font-size: 15px;&quot;&gt;- reason&lt;/span&gt;&lt;/font&gt;&lt;/p&gt;" style="text;html=1;align=center;verticalAlign=middle;resizable=0;points=[];autosize=1;strokeColor=none;fillColor=none;fontSize=15;" parent="pV0ACqQaasXmKPG5yBSi-38" vertex="1">
          <mxGeometry x="10" y="25" width="60" height="50" as="geometry" />
        </mxCell>
        <mxCell id="pV0ACqQaasXmKPG5yBSi-40" value="Category" style="swimlane;fontSize=15;" parent="pV0ACqQaasXmKPG5yBSi-25" vertex="1">
          <mxGeometry x="350" y="840" width="120" height="75" as="geometry" />
        </mxCell>
        <mxCell id="pV0ACqQaasXmKPG5yBSi-41" value="&lt;p style=&quot;text-align: left; font-size: 15px;&quot;&gt;&lt;font face=&quot;noto_regular&quot; color=&quot;#4b4b4b&quot; style=&quot;font-size: 15px;&quot;&gt;&lt;span style=&quot;font-size: 15px;&quot;&gt;- name&lt;/span&gt;&lt;/font&gt;&lt;/p&gt;" style="text;html=1;align=center;verticalAlign=middle;resizable=0;points=[];autosize=1;strokeColor=none;fillColor=none;fontSize=15;" parent="pV0ACqQaasXmKPG5yBSi-40" vertex="1">
          <mxGeometry x="10" y="25" width="60" height="50" as="geometry" />
        </mxCell>
        <mxCell id="pV0ACqQaasXmKPG5yBSi-42" style="edgeStyle=orthogonalEdgeStyle;rounded=0;orthogonalLoop=1;jettySize=auto;html=1;strokeColor=#3333FF;strokeWidth=2;fontSize=15;" parent="pV0ACqQaasXmKPG5yBSi-25" source="pV0ACqQaasXmKPG5yBSi-43" edge="1">
          <mxGeometry relative="1" as="geometry">
            <Array as="points">
              <mxPoint x="650" y="210" />
              <mxPoint x="650" y="210" />
            </Array>
            <mxPoint x="880" y="210" as="targetPoint" />
          </mxGeometry>
        </mxCell>
        <mxCell id="pV0ACqQaasXmKPG5yBSi-43" value="Idle User" style="swimlane;fillColor=#3333FF;fontColor=#FFFFFF;fontSize=15;" parent="pV0ACqQaasXmKPG5yBSi-25" vertex="1">
          <mxGeometry x="260" y="50" width="170" height="670" as="geometry" />
        </mxCell>
        <mxCell id="pV0ACqQaasXmKPG5yBSi-44" value="&lt;p style=&quot;color: rgb(0, 0, 0); font-family: Helvetica; font-size: 15px; font-style: normal; font-variant-ligatures: normal; font-variant-caps: normal; font-weight: 400; letter-spacing: normal; orphans: 2; text-indent: 0px; text-transform: none; widows: 2; word-spacing: 0px; -webkit-text-stroke-width: 0px; background-color: rgb(248, 249, 250); text-decoration-thickness: initial; text-decoration-style: initial; text-decoration-color: initial;&quot;&gt;&lt;span style=&quot;font-family: noto_regular; color: rgb(75, 75, 75); font-size: 15px;&quot;&gt;- comment&lt;/span&gt;&lt;/p&gt;&lt;p style=&quot;color: rgb(0, 0, 0); font-family: Helvetica; font-size: 15px; font-style: normal; font-variant-ligatures: normal; font-variant-caps: normal; font-weight: 400; letter-spacing: normal; orphans: 2; text-indent: 0px; text-transform: none; widows: 2; word-spacing: 0px; -webkit-text-stroke-width: 0px; background-color: rgb(248, 249, 250); text-decoration-thickness: initial; text-decoration-style: initial; text-decoration-color: initial;&quot;&gt;&lt;span style=&quot;font-family: noto_regular; color: rgb(75, 75, 75); font-size: 15px;&quot;&gt;- idleType&lt;/span&gt;&lt;/p&gt;&lt;p style=&quot;color: rgb(0, 0, 0); font-family: Helvetica; font-size: 15px; font-style: normal; font-variant-ligatures: normal; font-variant-caps: normal; font-weight: 400; letter-spacing: normal; orphans: 2; text-indent: 0px; text-transform: none; widows: 2; word-spacing: 0px; -webkit-text-stroke-width: 0px; background-color: rgb(248, 249, 250); text-decoration-thickness: initial; text-decoration-style: initial; text-decoration-color: initial;&quot;&gt;&lt;span style=&quot;font-family: noto_regular; color: rgb(75, 75, 75); font-size: 15px;&quot;&gt;- probability&lt;/span&gt;&lt;/p&gt;&lt;p style=&quot;color: rgb(0, 0, 0); font-family: Helvetica; font-size: 15px; font-style: normal; font-variant-ligatures: normal; font-variant-caps: normal; font-weight: 400; letter-spacing: normal; orphans: 2; text-indent: 0px; text-transform: none; widows: 2; word-spacing: 0px; -webkit-text-stroke-width: 0px; background-color: rgb(248, 249, 250); text-decoration-thickness: initial; text-decoration-style: initial; text-decoration-color: initial;&quot;&gt;&lt;span style=&quot;font-family: noto_regular; color: rgb(75, 75, 75); font-size: 15px;&quot;&gt;- status&lt;/span&gt;&lt;/p&gt;&lt;p style=&quot;color: rgb(0, 0, 0); font-family: Helvetica; font-size: 15px; font-style: normal; font-variant-ligatures: normal; font-variant-caps: normal; font-weight: 400; letter-spacing: normal; orphans: 2; text-indent: 0px; text-transform: none; widows: 2; word-spacing: 0px; -webkit-text-stroke-width: 0px; background-color: rgb(248, 249, 250); text-decoration-thickness: initial; text-decoration-style: initial; text-decoration-color: initial;&quot;&gt;&lt;span style=&quot;font-family: noto_regular; color: rgb(75, 75, 75); font-size: 15px;&quot;&gt;- date&lt;/span&gt;&lt;/p&gt;&lt;p style=&quot;font-size: 15px;&quot;&gt;&lt;span style=&quot;font-family: noto_regular; color: rgb(75, 75, 75); font-size: 15px;&quot;&gt;- name&lt;/span&gt;&lt;/p&gt;&lt;p style=&quot;font-size: 15px;&quot;&gt;&lt;span style=&quot;font-family: noto_regular; color: rgb(75, 75, 75); font-size: 15px;&quot;&gt;- gradeKind&lt;/span&gt;&lt;/p&gt;&lt;p style=&quot;font-size: 15px;&quot;&gt;&lt;span style=&quot;color: rgb(75, 75, 75); font-family: noto_regular; font-size: 15px;&quot;&gt;- idleReason (&lt;b style=&quot;font-size: 15px;&quot;&gt;instead Idle Reason&lt;/b&gt;)&lt;/span&gt;&lt;span style=&quot;font-family: noto_regular; color: rgb(75, 75, 75); font-size: 15px;&quot;&gt;&lt;br style=&quot;font-size: 15px;&quot;&gt;&lt;/span&gt;&lt;/p&gt;&lt;p style=&quot;font-size: 15px;&quot;&gt;&lt;span style=&quot;font-family: noto_regular; color: rgb(75, 75, 75); font-size: 15px;&quot;&gt;&lt;strike style=&quot;font-size: 15px;&quot;&gt;- category&lt;/strike&gt;&lt;/span&gt;&lt;/p&gt;&lt;p style=&quot;font-size: 15px;&quot;&gt;&lt;span style=&quot;font-family: noto_regular; color: rgb(75, 75, 75); font-size: 15px;&quot;&gt;- companyEmail&lt;/span&gt;&lt;/p&gt;&lt;p style=&quot;font-size: 15px;&quot;&gt;&lt;span style=&quot;font-family: noto_regular; color: rgb(75, 75, 75); font-size: 15px;&quot;&gt;- &lt;strike style=&quot;font-size: 15px;&quot;&gt;hasCv&lt;/strike&gt;&lt;/span&gt;&lt;/p&gt;&lt;p style=&quot;font-size: 15px;&quot;&gt;&lt;span style=&quot;font-family: noto_regular; color: rgb(75, 75, 75); font-size: 15px;&quot;&gt;- linkToUser&lt;/span&gt;&lt;/p&gt;&lt;p style=&quot;font-size: 15px;&quot;&gt;&lt;span style=&quot;font-family: noto_regular; color: rgb(75, 75, 75); font-size: 15px;&quot;&gt;- linkToUserInfo&lt;/span&gt;&lt;/p&gt;&lt;p style=&quot;font-size: 15px;&quot;&gt;&lt;span style=&quot;font-family: noto_regular; color: rgb(75, 75, 75); font-size: 15px;&quot;&gt;- avatarUrl&lt;/span&gt;&lt;/p&gt;&lt;p style=&quot;font-size: 15px;&quot;&gt;&lt;span style=&quot;font-family: noto_regular; color: rgb(75, 75, 75); font-size: 15px;&quot;&gt;- englishLevel&lt;/span&gt;&lt;/p&gt;&lt;p style=&quot;font-size: 15px;&quot;&gt;&lt;span style=&quot;font-family: noto_regular; color: rgb(75, 75, 75); font-size: 15px;&quot;&gt;- englishLevelIndex&lt;/span&gt;&lt;/p&gt;&lt;p style=&quot;font-size: 15px;&quot;&gt;&lt;span style=&quot;color: rgb(75, 75, 75); font-family: noto_regular; font-size: 15px;&quot;&gt;- timeZone&lt;b style=&quot;font-size: 15px;&quot;&gt; (instead profile)&lt;/b&gt;&lt;/span&gt;&lt;span style=&quot;font-family: noto_regular; color: rgb(75, 75, 75); font-size: 15px;&quot;&gt;&lt;br style=&quot;font-size: 15px;&quot;&gt;&lt;/span&gt;&lt;/p&gt;&lt;p style=&quot;font-size: 15px;&quot;&gt;&lt;span style=&quot;color: rgb(75, 75, 75); font-family: noto_regular; font-size: 15px;&quot;&gt;- aasmState&lt;/span&gt;&lt;/p&gt;" style="text;html=1;strokeColor=none;fillColor=none;align=left;verticalAlign=top;whiteSpace=wrap;rounded=0;fontSize=15;" parent="pV0ACqQaasXmKPG5yBSi-43" vertex="1">
          <mxGeometry x="10" y="10" width="150" height="640" as="geometry" />
        </mxCell>
        <mxCell id="pV0ACqQaasXmKPG5yBSi-45" value="" style="shape=mxgraph.mockup.markup.redX;fillColor=#ff0000;html=1;shadow=0;strokeColor=none;fontSize=15;fontColor=#000066;" parent="pV0ACqQaasXmKPG5yBSi-43" vertex="1">
          <mxGeometry x="30" y="310" width="20" height="20" as="geometry" />
        </mxCell>
        <mxCell id="pV0ACqQaasXmKPG5yBSi-46" value="" style="shape=mxgraph.mockup.markup.redX;fillColor=#ff0000;html=1;shadow=0;strokeColor=none;fontSize=15;fontColor=#000066;" parent="pV0ACqQaasXmKPG5yBSi-43" vertex="1">
          <mxGeometry x="30" y="380" width="20" height="20" as="geometry" />
        </mxCell>
        <mxCell id="pV0ACqQaasXmKPG5yBSi-47" style="edgeStyle=orthogonalEdgeStyle;rounded=0;orthogonalLoop=1;jettySize=auto;html=1;strokeWidth=2;strokeColor=#FFCC99;fontSize=15;" parent="pV0ACqQaasXmKPG5yBSi-25" source="pV0ACqQaasXmKPG5yBSi-48" edge="1">
          <mxGeometry relative="1" as="geometry">
            <mxPoint x="470" y="880" as="targetPoint" />
            <Array as="points">
              <mxPoint x="470" y="880" />
            </Array>
          </mxGeometry>
        </mxCell>
        <mxCell id="pV0ACqQaasXmKPG5yBSi-48" value="Request Slot" style="swimlane;fillColor=#FFCC99;fontSize=15;" parent="pV0ACqQaasXmKPG5yBSi-25" vertex="1">
          <mxGeometry x="1020" y="540" width="180" height="400" as="geometry">
            <mxRectangle x="640" y="540" width="110" height="23" as="alternateBounds" />
          </mxGeometry>
        </mxCell>
        <mxCell id="pV0ACqQaasXmKPG5yBSi-49" value="&lt;p style=&quot;text-align: left; font-size: 15px;&quot;&gt;&lt;span style=&quot;font-family: noto_regular; color: rgb(75, 75, 75); font-size: 15px;&quot;&gt;- rate &lt;/span&gt;&lt;/p&gt;&lt;p style=&quot;text-align: left; font-size: 15px;&quot;&gt;&lt;span style=&quot;font-family: noto_regular; color: rgb(75, 75, 75); font-size: 15px;&quot;&gt;- startOfWork&lt;/span&gt;&lt;/p&gt;&lt;p style=&quot;text-align: left; font-size: 15px;&quot;&gt;&lt;span style=&quot;font-family: noto_regular; color: rgb(75, 75, 75); font-size: 15px;&quot;&gt;- englishLevel &lt;/span&gt;&lt;/p&gt;&lt;p style=&quot;text-align: left; font-size: 15px;&quot;&gt;&lt;span style=&quot;font-family: noto_regular; color: rgb(75, 75, 75); font-size: 15px;&quot;&gt;- desiredDate &lt;/span&gt;&lt;/p&gt;&lt;p style=&quot;text-align: left; font-size: 15px;&quot;&gt;&lt;span style=&quot;font-family: noto_regular; color: rgb(75, 75, 75); font-size: 15px;&quot;&gt;- optional&lt;/span&gt;&lt;/p&gt;&lt;p style=&quot;text-align: left; font-size: 15px;&quot;&gt;&lt;span style=&quot;font-family: noto_regular; color: rgb(75, 75, 75); font-size: 15px;&quot;&gt;- status &lt;/span&gt;&lt;/p&gt;&lt;p style=&quot;text-align: left; font-size: 15px;&quot;&gt;&lt;span style=&quot;font-family: noto_regular; color: rgb(75, 75, 75); font-size: 15px;&quot;&gt;- timezoneTolerance&lt;/span&gt;&lt;/p&gt;&lt;p style=&quot;text-align: left; font-size: 15px;&quot;&gt;&lt;span style=&quot;font-family: noto_regular; color: rgb(75, 75, 75); font-size: 15px;&quot;&gt;- description&lt;/span&gt;&lt;/p&gt;&lt;p style=&quot;text-align: left; font-size: 15px;&quot;&gt;&lt;span style=&quot;font-family: noto_regular; color: rgb(75, 75, 75); font-size: 15px;&quot;&gt;- grades &lt;/span&gt;&lt;/p&gt;&lt;p style=&quot;text-align: left; font-size: 15px;&quot;&gt;&lt;span style=&quot;font-family: noto_regular; color: rgb(75, 75, 75); font-size: 15px;&quot;&gt;- workdayTimeZone &lt;/span&gt;&lt;/p&gt;&lt;p style=&quot;text-align: left; font-size: 15px;&quot;&gt;&lt;span style=&quot;font-family: noto_regular; color: rgb(75, 75, 75); font-size: 15px;&quot;&gt;- englishLevelIndex&lt;/span&gt;&lt;/p&gt;" style="text;html=1;align=center;verticalAlign=middle;resizable=0;points=[];autosize=1;strokeColor=none;fillColor=none;fontSize=15;" parent="pV0ACqQaasXmKPG5yBSi-48" vertex="1">
          <mxGeometry x="12.78" y="20" width="140" height="380" as="geometry" />
        </mxCell>
        <mxCell id="pV0ACqQaasXmKPG5yBSi-50" value="Project" style="swimlane;startSize=23;fontSize=15;" parent="pV0ACqQaasXmKPG5yBSi-25" vertex="1">
          <mxGeometry x="880" width="211" height="230" as="geometry">
            <mxRectangle x="40" y="160" width="100" height="23" as="alternateBounds" />
          </mxGeometry>
        </mxCell>
        <mxCell id="pV0ACqQaasXmKPG5yBSi-51" value="&lt;p style=&quot;font-size: 15px;&quot;&gt;&lt;span style=&quot;font-family: noto_regular; color: rgb(75, 75, 75); font-size: 15px;&quot;&gt;-&amp;nbsp;&lt;/span&gt;&lt;span style=&quot;font-family: noto_regular; color: var(--color-syntax-2); font-size: 15px;&quot;&gt;available&lt;/span&gt;&lt;/p&gt;&lt;p style=&quot;font-size: 15px;&quot;&gt;&lt;span style=&quot;font-family: noto_regular; color: var(--color-syntax-2); font-size: 15px;&quot;&gt;- linkToProject&lt;/span&gt;&lt;span style=&quot;font-family: noto_regular; color: rgb(32, 33, 36); font-size: 15px;&quot;&gt;:&lt;/span&gt;&lt;/p&gt;&lt;p style=&quot;font-size: 15px;&quot;&gt;&lt;span style=&quot;font-family: noto_regular; color: var(--color-syntax-2); font-size: 15px;&quot;&gt;- linkToProjectInfo&lt;/span&gt;&lt;/p&gt;&lt;p style=&quot;font-size: 15px;&quot;&gt;&lt;span style=&quot;font-family: noto_regular; color: var(--color-syntax-2); font-size: 15px; background-color: rgb(255, 230, 204);&quot;&gt;- name (используется&amp;nbsp;&lt;/span&gt;&lt;span style=&quot;background-color: rgb(255, 230, 204); color: var(--color-syntax-2); font-family: noto_regular; font-size: 15px;&quot;&gt;&amp;nbsp;только это)&lt;/span&gt;&lt;/p&gt;&lt;p style=&quot;font-size: 15px;&quot;&gt;&lt;span style=&quot;font-family: noto_regular; color: var(--color-syntax-2); font-size: 15px;&quot;&gt;- status&lt;/span&gt;&lt;/p&gt;" style="text;html=1;strokeColor=none;fillColor=none;align=left;verticalAlign=top;whiteSpace=wrap;rounded=0;fontSize=15;" parent="pV0ACqQaasXmKPG5yBSi-50" vertex="1">
          <mxGeometry x="10" y="30" width="201" height="190" as="geometry" />
        </mxCell>
        <mxCell id="pV0ACqQaasXmKPG5yBSi-52" value="" style="shape=mxgraph.mockup.markup.redX;fillColor=#ff0000;html=1;shadow=0;strokeColor=none;fontSize=15;fontColor=#000066;" parent="pV0ACqQaasXmKPG5yBSi-50" vertex="1">
          <mxGeometry x="30" y="50" width="20" height="20" as="geometry" />
        </mxCell>
        <mxCell id="pV0ACqQaasXmKPG5yBSi-53" value="" style="shape=mxgraph.mockup.markup.redX;fillColor=#ff0000;html=1;shadow=0;strokeColor=none;fontSize=15;fontColor=#000066;" parent="pV0ACqQaasXmKPG5yBSi-50" vertex="1">
          <mxGeometry x="30" y="80" width="20" height="20" as="geometry" />
        </mxCell>
        <mxCell id="pV0ACqQaasXmKPG5yBSi-54" value="" style="shape=mxgraph.mockup.markup.redX;fillColor=#ff0000;html=1;shadow=0;strokeColor=none;fontSize=15;fontColor=#000066;" parent="pV0ACqQaasXmKPG5yBSi-50" vertex="1">
          <mxGeometry x="30" y="115" width="20" height="20" as="geometry" />
        </mxCell>
        <mxCell id="pV0ACqQaasXmKPG5yBSi-55" value="" style="shape=mxgraph.mockup.markup.redX;fillColor=#ff0000;html=1;shadow=0;strokeColor=none;fontSize=15;fontColor=#000066;" parent="pV0ACqQaasXmKPG5yBSi-50" vertex="1">
          <mxGeometry x="30" y="200" width="20" height="20" as="geometry" />
        </mxCell>
        <mxCell id="pV0ACqQaasXmKPG5yBSi-56" style="edgeStyle=orthogonalEdgeStyle;rounded=0;orthogonalLoop=1;jettySize=auto;html=1;strokeColor=#FF9999;strokeWidth=2;fontSize=15;" parent="pV0ACqQaasXmKPG5yBSi-25" target="pV0ACqQaasXmKPG5yBSi-75" edge="1">
          <mxGeometry relative="1" as="geometry">
            <mxPoint x="1060" y="350" as="sourcePoint" />
            <mxPoint x="610" y="120" as="targetPoint" />
            <Array as="points">
              <mxPoint x="720" y="350" />
            </Array>
          </mxGeometry>
        </mxCell>
        <mxCell id="pV0ACqQaasXmKPG5yBSi-57" style="edgeStyle=orthogonalEdgeStyle;rounded=0;orthogonalLoop=1;jettySize=auto;html=1;strokeColor=#FF9999;strokeWidth=2;startArrow=none;fontSize=15;entryX=0.452;entryY=0.002;entryDx=0;entryDy=0;entryPerimeter=0;" parent="pV0ACqQaasXmKPG5yBSi-25" target="pV0ACqQaasXmKPG5yBSi-48" edge="1">
          <mxGeometry relative="1" as="geometry">
            <mxPoint x="1105" y="570" as="targetPoint" />
            <Array as="points">
              <mxPoint x="1101" y="440" />
              <mxPoint x="1101" y="490" />
              <mxPoint x="1101" y="490" />
            </Array>
            <mxPoint x="1104" y="440" as="sourcePoint" />
          </mxGeometry>
        </mxCell>
        <mxCell id="pV0ACqQaasXmKPG5yBSi-58" value="Employee Request" style="swimlane;startSize=23;fillColor=#FF9999;strokeColor=#000066;fontSize=15;" parent="pV0ACqQaasXmKPG5yBSi-25" vertex="1">
          <mxGeometry x="1060" y="310" width="180" height="130" as="geometry">
            <mxRectangle x="910" y="310" width="160" height="23" as="alternateBounds" />
          </mxGeometry>
        </mxCell>
        <mxCell id="pV0ACqQaasXmKPG5yBSi-59" value="&lt;span style=&quot;background-color: initial;&quot;&gt;- name&lt;/span&gt;&lt;br&gt;&lt;span style=&quot;background-color: initial;&quot;&gt;- status&lt;/span&gt;&lt;br&gt;&lt;span style=&quot;background-color: initial;&quot;&gt;- essence&lt;/span&gt;&lt;br&gt;&lt;span style=&quot;background-color: initial;&quot;&gt;- contractType&lt;/span&gt;" style="text;html=1;strokeColor=none;fillColor=none;align=left;verticalAlign=top;whiteSpace=wrap;rounded=0;labelBackgroundColor=none;fontFamily=Helvetica;fontSize=13;fontColor=#000000;" parent="pV0ACqQaasXmKPG5yBSi-58" vertex="1">
          <mxGeometry x="10" y="30" width="140" height="80" as="geometry" />
        </mxCell>
        <mxCell id="pV0ACqQaasXmKPG5yBSi-60" style="edgeStyle=orthogonalEdgeStyle;rounded=0;orthogonalLoop=1;jettySize=auto;html=1;strokeColor=#00CC00;strokeWidth=2;startArrow=none;fontSize=15;" parent="pV0ACqQaasXmKPG5yBSi-25" edge="1">
          <mxGeometry relative="1" as="geometry">
            <mxPoint x="430" y="570" as="targetPoint" />
            <mxPoint x="630" y="570" as="sourcePoint" />
            <Array as="points">
              <mxPoint x="580" y="570" />
              <mxPoint x="580" y="570" />
            </Array>
          </mxGeometry>
        </mxCell>
        <mxCell id="pV0ACqQaasXmKPG5yBSi-61" style="edgeStyle=orthogonalEdgeStyle;rounded=0;orthogonalLoop=1;jettySize=auto;html=1;entryX=0.25;entryY=0;entryDx=0;entryDy=0;strokeColor=#3333FF;strokeWidth=2;fontSize=15;" parent="pV0ACqQaasXmKPG5yBSi-25" target="pV0ACqQaasXmKPG5yBSi-40" edge="1">
          <mxGeometry relative="1" as="geometry">
            <Array as="points">
              <mxPoint x="380" y="750" />
              <mxPoint x="380" y="750" />
            </Array>
            <mxPoint x="380" y="720" as="sourcePoint" />
          </mxGeometry>
        </mxCell>
        <mxCell id="pV0ACqQaasXmKPG5yBSi-62" style="edgeStyle=orthogonalEdgeStyle;rounded=0;orthogonalLoop=1;jettySize=auto;html=1;strokeWidth=2;strokeColor=#FF9999;fontSize=15;" parent="pV0ACqQaasXmKPG5yBSi-25" source="pV0ACqQaasXmKPG5yBSi-58" edge="1">
          <mxGeometry relative="1" as="geometry">
            <Array as="points">
              <mxPoint x="1080" y="290" />
            </Array>
            <mxPoint x="1280" y="427.5" as="sourcePoint" />
            <mxPoint x="1080" y="230" as="targetPoint" />
          </mxGeometry>
        </mxCell>
        <mxCell id="pV0ACqQaasXmKPG5yBSi-63" value="Booking" style="swimlane;startSize=23;fillColor=#00CC66;fontSize=15;" parent="pV0ACqQaasXmKPG5yBSi-25" vertex="1">
          <mxGeometry x="630" y="480" width="170" height="150" as="geometry">
            <mxRectangle x="827" y="620" width="100" height="23" as="alternateBounds" />
          </mxGeometry>
        </mxCell>
        <mxCell id="pV0ACqQaasXmKPG5yBSi-64" value="&lt;p style=&quot;color: rgb(0, 0, 0); font-family: Helvetica; font-size: 15px; font-style: normal; font-variant-ligatures: normal; font-variant-caps: normal; font-weight: 400; letter-spacing: normal; orphans: 2; text-indent: 0px; text-transform: none; widows: 2; word-spacing: 0px; -webkit-text-stroke-width: 0px; text-decoration-thickness: initial; text-decoration-style: initial; text-decoration-color: initial;&quot;&gt;&lt;span style=&quot;font-family: noto_regular; color: rgb(75, 75, 75); font-size: 15px;&quot;&gt;- operativeComment&lt;/span&gt;&lt;/p&gt;&lt;p style=&quot;color: rgb(0, 0, 0); font-family: Helvetica; font-size: 15px; font-style: normal; font-variant-ligatures: normal; font-variant-caps: normal; font-weight: 400; letter-spacing: normal; orphans: 2; text-indent: 0px; text-transform: none; widows: 2; word-spacing: 0px; -webkit-text-stroke-width: 0px; text-decoration-thickness: initial; text-decoration-style: initial; text-decoration-color: initial;&quot;&gt;&lt;span style=&quot;font-family: noto_regular; color: rgb(75, 75, 75); font-size: 15px;&quot;&gt;- resultantComment&lt;/span&gt;&lt;/p&gt;&lt;p style=&quot;color: rgb(0, 0, 0); font-family: Helvetica; font-size: 15px; font-style: normal; font-variant-ligatures: normal; font-variant-caps: normal; font-weight: 400; letter-spacing: normal; orphans: 2; text-indent: 0px; text-transform: none; widows: 2; word-spacing: 0px; -webkit-text-stroke-width: 0px; text-decoration-thickness: initial; text-decoration-style: initial; text-decoration-color: initial;&quot;&gt;&lt;span style=&quot;font-family: noto_regular; color: rgb(75, 75, 75); font-size: 15px;&quot;&gt;- bookingDate&lt;/span&gt;&lt;/p&gt;" style="text;html=1;strokeColor=none;fillColor=none;align=left;verticalAlign=top;whiteSpace=wrap;rounded=0;labelBackgroundColor=none;fontSize=15;" parent="pV0ACqQaasXmKPG5yBSi-63" vertex="1">
          <mxGeometry x="7" y="30" width="160" height="110" as="geometry" />
        </mxCell>
        <mxCell id="pV0ACqQaasXmKPG5yBSi-65" style="edgeStyle=orthogonalEdgeStyle;rounded=0;orthogonalLoop=1;jettySize=auto;html=1;strokeWidth=2;strokeColor=#FFCC99;fontSize=15;" parent="pV0ACqQaasXmKPG5yBSi-25" source="pV0ACqQaasXmKPG5yBSi-48" edge="1">
          <mxGeometry relative="1" as="geometry">
            <Array as="points">
              <mxPoint x="830" y="610" />
              <mxPoint x="830" y="610" />
            </Array>
            <mxPoint x="800" y="610" as="targetPoint" />
          </mxGeometry>
        </mxCell>
        <mxCell id="pV0ACqQaasXmKPG5yBSi-66" style="edgeStyle=orthogonalEdgeStyle;rounded=0;orthogonalLoop=1;jettySize=auto;html=1;strokeColor=#00CC66;strokeWidth=2;exitX=0.294;exitY=-0.02;exitDx=0;exitDy=0;exitPerimeter=0;fontSize=15;" parent="pV0ACqQaasXmKPG5yBSi-25" source="pV0ACqQaasXmKPG5yBSi-63" edge="1">
          <mxGeometry relative="1" as="geometry">
            <Array as="points" />
            <mxPoint x="550" y="295" as="sourcePoint" />
            <mxPoint x="680" y="185" as="targetPoint" />
          </mxGeometry>
        </mxCell>
        <mxCell id="pV0ACqQaasXmKPG5yBSi-67" style="edgeStyle=orthogonalEdgeStyle;rounded=0;orthogonalLoop=1;jettySize=auto;html=1;strokeColor=#3333FF;strokeWidth=2;startArrow=none;fontSize=15;" parent="pV0ACqQaasXmKPG5yBSi-25" source="pV0ACqQaasXmKPG5yBSi-80" edge="1">
          <mxGeometry relative="1" as="geometry">
            <mxPoint x="120" y="170" as="targetPoint" />
            <Array as="points">
              <mxPoint x="260" y="170" />
            </Array>
            <mxPoint x="130" y="170" as="sourcePoint" />
          </mxGeometry>
        </mxCell>
        <mxCell id="pV0ACqQaasXmKPG5yBSi-68" style="edgeStyle=orthogonalEdgeStyle;rounded=0;orthogonalLoop=1;jettySize=auto;html=1;strokeColor=#3333FF;strokeWidth=2;fontSize=15;" parent="pV0ACqQaasXmKPG5yBSi-25" edge="1">
          <mxGeometry relative="1" as="geometry">
            <mxPoint x="120" y="369.76" as="targetPoint" />
            <Array as="points">
              <mxPoint x="260" y="369.76" />
              <mxPoint x="260" y="369.76" />
            </Array>
            <mxPoint x="130" y="369.76" as="sourcePoint" />
          </mxGeometry>
        </mxCell>
        <mxCell id="pV0ACqQaasXmKPG5yBSi-69" style="edgeStyle=orthogonalEdgeStyle;rounded=0;orthogonalLoop=1;jettySize=auto;html=1;strokeColor=#3333FF;strokeWidth=2;fontSize=15;" parent="pV0ACqQaasXmKPG5yBSi-25" edge="1">
          <mxGeometry relative="1" as="geometry">
            <mxPoint x="120" y="480" as="targetPoint" />
            <Array as="points">
              <mxPoint x="260" y="480" />
              <mxPoint x="260" y="480" />
            </Array>
            <mxPoint x="130" y="480" as="sourcePoint" />
          </mxGeometry>
        </mxCell>
        <mxCell id="pV0ACqQaasXmKPG5yBSi-70" style="edgeStyle=orthogonalEdgeStyle;rounded=0;orthogonalLoop=1;jettySize=auto;html=1;strokeColor=#3333FF;strokeWidth=2;fontSize=15;" parent="pV0ACqQaasXmKPG5yBSi-25" edge="1">
          <mxGeometry relative="1" as="geometry">
            <mxPoint x="120" y="610" as="targetPoint" />
            <Array as="points">
              <mxPoint x="260" y="610" />
              <mxPoint x="260" y="610" />
            </Array>
            <mxPoint x="130" y="610" as="sourcePoint" />
          </mxGeometry>
        </mxCell>
        <mxCell id="pV0ACqQaasXmKPG5yBSi-71" value="&lt;span style=&quot;font-size: 15px;&quot;&gt;Idelable Vacation&lt;/span&gt;" style="edgeLabel;html=1;align=center;verticalAlign=middle;resizable=0;points=[];fontSize=15;" parent="pV0ACqQaasXmKPG5yBSi-70" vertex="1" connectable="0">
          <mxGeometry x="-0.5351" relative="1" as="geometry">
            <mxPoint as="offset" />
          </mxGeometry>
        </mxCell>
        <mxCell id="pV0ACqQaasXmKPG5yBSi-72" style="edgeStyle=orthogonalEdgeStyle;rounded=0;orthogonalLoop=1;jettySize=auto;html=1;strokeColor=#3333FF;strokeWidth=2;entryX=1;entryY=0.5;entryDx=0;entryDy=0;fontSize=15;startArrow=none;" parent="pV0ACqQaasXmKPG5yBSi-25" source="pV0ACqQaasXmKPG5yBSi-83" target="pV0ACqQaasXmKPG5yBSi-36" edge="1">
          <mxGeometry relative="1" as="geometry">
            <mxPoint x="150" y="670" as="targetPoint" />
            <Array as="points" />
            <mxPoint x="308" y="720" as="sourcePoint" />
          </mxGeometry>
        </mxCell>
        <mxCell id="pV0ACqQaasXmKPG5yBSi-73" value="" style="group;fontSize=15;" parent="pV0ACqQaasXmKPG5yBSi-25" vertex="1" connectable="0">
          <mxGeometry x="650" y="105" width="121.86999999999989" height="80" as="geometry" />
        </mxCell>
        <mxCell id="pV0ACqQaasXmKPG5yBSi-74" value="Author" style="swimlane;fontSize=15;" parent="pV0ACqQaasXmKPG5yBSi-73" vertex="1">
          <mxGeometry width="120" height="80" as="geometry" />
        </mxCell>
        <mxCell id="pV0ACqQaasXmKPG5yBSi-75" value="- name&lt;br style=&quot;font-size: 15px;&quot;&gt;- avatarUrl" style="text;html=1;strokeColor=none;fillColor=none;align=left;verticalAlign=top;whiteSpace=wrap;rounded=0;fontSize=15;" parent="pV0ACqQaasXmKPG5yBSi-73" vertex="1">
          <mxGeometry x="18.12999999999988" y="30" width="103.74" height="50" as="geometry" />
        </mxCell>
        <mxCell id="pV0ACqQaasXmKPG5yBSi-76" style="edgeStyle=orthogonalEdgeStyle;rounded=0;orthogonalLoop=1;jettySize=auto;html=1;strokeColor=#3333FF;strokeWidth=2;fontSize=15;" parent="pV0ACqQaasXmKPG5yBSi-25" source="pV0ACqQaasXmKPG5yBSi-43" target="pV0ACqQaasXmKPG5yBSi-74" edge="1">
          <mxGeometry relative="1" as="geometry">
            <mxPoint x="490" y="120" as="targetPoint" />
            <Array as="points">
              <mxPoint x="470" y="170" />
              <mxPoint x="470" y="170" />
            </Array>
          </mxGeometry>
        </mxCell>
        <mxCell id="pV0ACqQaasXmKPG5yBSi-77" style="edgeStyle=orthogonalEdgeStyle;rounded=0;orthogonalLoop=1;jettySize=auto;html=1;strokeColor=#3333FF;strokeWidth=2;fontSize=15;" parent="pV0ACqQaasXmKPG5yBSi-25" edge="1">
          <mxGeometry relative="1" as="geometry">
            <mxPoint x="630" y="580" as="targetPoint" />
            <Array as="points">
              <mxPoint x="470" y="580" />
              <mxPoint x="470" y="580" />
            </Array>
            <mxPoint x="430" y="580" as="sourcePoint" />
          </mxGeometry>
        </mxCell>
        <mxCell id="pV0ACqQaasXmKPG5yBSi-78" style="edgeStyle=orthogonalEdgeStyle;rounded=0;orthogonalLoop=1;jettySize=auto;html=1;strokeColor=#00CC00;strokeWidth=2;startArrow=none;fontSize=15;" parent="pV0ACqQaasXmKPG5yBSi-25" edge="1">
          <mxGeometry relative="1" as="geometry">
            <mxPoint x="1020" y="600" as="targetPoint" />
            <mxPoint x="800" y="600" as="sourcePoint" />
            <Array as="points">
              <mxPoint x="800" y="600" />
              <mxPoint x="1030" y="600" />
            </Array>
          </mxGeometry>
        </mxCell>
        <mxCell id="pV0ACqQaasXmKPG5yBSi-79" value="" style="shape=mxgraph.mockup.markup.redX;fillColor=#ff0000;html=1;shadow=0;strokeColor=none;fontSize=15;fontColor=#000066;" parent="pV0ACqQaasXmKPG5yBSi-25" vertex="1">
          <mxGeometry x="175" y="340" width="20" height="20" as="geometry" />
        </mxCell>
        <mxCell id="pV0ACqQaasXmKPG5yBSi-80" value="" style="shape=mxgraph.mockup.markup.redX;fillColor=#ff0000;html=1;shadow=0;strokeColor=none;fontSize=15;fontColor=#000066;" parent="pV0ACqQaasXmKPG5yBSi-25" vertex="1">
          <mxGeometry x="170" y="160" width="20" height="20" as="geometry" />
        </mxCell>
        <mxCell id="pV0ACqQaasXmKPG5yBSi-81" value="" style="edgeStyle=orthogonalEdgeStyle;rounded=0;orthogonalLoop=1;jettySize=auto;html=1;strokeColor=#3333FF;strokeWidth=2;endArrow=none;fontSize=15;" parent="pV0ACqQaasXmKPG5yBSi-25" target="pV0ACqQaasXmKPG5yBSi-80" edge="1">
          <mxGeometry relative="1" as="geometry">
            <mxPoint x="120" y="170" as="targetPoint" />
            <Array as="points">
              <mxPoint x="260" y="170" />
            </Array>
            <mxPoint x="130" y="170" as="sourcePoint" />
          </mxGeometry>
        </mxCell>
        <mxCell id="pV0ACqQaasXmKPG5yBSi-82" style="edgeStyle=orthogonalEdgeStyle;rounded=0;orthogonalLoop=1;jettySize=auto;html=1;strokeWidth=2;strokeColor=#FFCC99;fontSize=15;" parent="pV0ACqQaasXmKPG5yBSi-25" edge="1">
          <mxGeometry relative="1" as="geometry">
            <Array as="points" />
            <mxPoint x="1110" y="440" as="targetPoint" />
            <mxPoint x="1110" y="540" as="sourcePoint" />
          </mxGeometry>
        </mxCell>
        <mxCell id="pV0ACqQaasXmKPG5yBSi-83" value="" style="shape=mxgraph.mockup.markup.redX;fillColor=#ff0000;html=1;shadow=0;strokeColor=none;fontSize=15;fontColor=#000066;" parent="pV0ACqQaasXmKPG5yBSi-25" vertex="1">
          <mxGeometry x="170" y="797.5" width="20" height="20" as="geometry" />
        </mxCell>
        <mxCell id="pV0ACqQaasXmKPG5yBSi-84" value="" style="edgeStyle=orthogonalEdgeStyle;rounded=0;orthogonalLoop=1;jettySize=auto;html=1;strokeColor=#3333FF;strokeWidth=2;entryX=1;entryY=0.5;entryDx=0;entryDy=0;fontSize=15;endArrow=none;" parent="pV0ACqQaasXmKPG5yBSi-25" target="pV0ACqQaasXmKPG5yBSi-83" edge="1">
          <mxGeometry relative="1" as="geometry">
            <mxPoint x="120" y="807.5" as="targetPoint" />
            <Array as="points">
              <mxPoint x="310" y="720" />
              <mxPoint x="310" y="808" />
              <mxPoint x="130" y="808" />
            </Array>
            <mxPoint x="308" y="720" as="sourcePoint" />
          </mxGeometry>
        </mxCell>
      </root>
    </mxGraphModel>
  </diagram>
</mxfile>
